<?xml version="1.0" standalone="no"?>
<!DOCTYPE svg PUBLIC "-//W3C//DTD SVG 1.1//EN" "http://www.w3.org/Graphics/SVG/1.1/DTD/svg11.dtd" >
<svg xmlns="http://www.w3.org/2000/svg">
<metadata>
This is a custom SVG webfont generated by Font Squirrel.
Copyright   : Copyright 2003 2008 B Jackowski and J M Nowacki on behalf of TeX users groups This work is released under the GUST Font License   see httptugorgfontslicensesGUSTFONTLICENSEtxt for details
</metadata>
<defs>
<font id="LatinModernRomanCaps10Regular" horiz-adv-x="1667" >
<font-face units-per-em="2048" ascent="1651" descent="-397" />
<missing-glyph horiz-adv-x="774" />
<glyph unicode=" "  horiz-adv-x="774" />
<glyph unicode="&#x09;" horiz-adv-x="774" />
<glyph unicode="&#xa0;" horiz-adv-x="774" />
<glyph unicode="!" horiz-adv-x="653" d="M217 1362q0 47 33 75.5t76 28.5t75.5 -28.5t32.5 -75.5l-80 -934q-2 -45 -28 -45q-12 0 -18.5 6t-7.5 14.5l-3 26.5zM217 108.5q0 45.5 32 77t77 31.5t76.5 -31.5t31.5 -77t-31.5 -77t-76.5 -31.5t-77 31.5t-32 77z" />
<glyph unicode="&#x22;" horiz-adv-x="849" d="M256 1372q-2 31 19.5 51.5t52 20.5t52 -20.5t19.5 -51.5l-45 -506h-53zM453 1372q-2 31 19.5 51.5t52 20.5t52 -20.5t19.5 -51.5l-45 -506h-53z" />
<glyph unicode="#" horiz-adv-x="1849" d="M147 313q0 41 70 41h373l88 316h-461q-70 0 -70 41t68 41h487l179 622q4 16 8 25.5t12 15.5t23 6q16 0 28.5 -12t12.5 -29q0 -4 -4.5 -19t-4.5 -18l-170 -591h412l178 622q4 16 8.5 25.5t12.5 15.5t22 6q16 0 28.5 -12t12.5 -29q0 -4 -4 -19t-4 -18l-170 -591h350 q68 0 68 -41t-70 -41h-373l-88 -316h461q70 0 70 -41t-68 -41h-487l-178 -622q-4 -16 -8.5 -25.5t-12.5 -15.5t-22 -6q-16 0 -28.5 12t-12.5 29q0 4 4 19t4 18l170 591h-412l-178 -622q-4 -16 -8 -25.5t-12.5 -15.5t-22.5 -6q-16 0 -28.5 12t-12.5 29q0 4 4 19t4 18l170 591 h-350q-68 0 -68 41zM674 354h411l89 316h-412z" />
<glyph unicode="$" horiz-adv-x="1132" d="M147 365q0 35 12.5 58t31 31.5t29.5 11.5t22 3q39 0 66.5 -26.5t27.5 -67.5t-26.5 -67.5t-67.5 -26.5q-16 0 -33 4q27 -111 112 -173.5t214 -70.5v612q-74 16 -107 26.5t-80 36t-88 66.5q-113 113 -113 269q0 150 109 264.5t279 126.5v94h63v-92q184 -10 284.5 -111.5 t100.5 -249.5q0 -45 -24.5 -70.5t-41 -28.5t-28.5 -3q-37 0 -65.5 24.5t-28.5 69.5q0 43 26.5 68.5t67.5 25.5q23 0 31 -4q-20 88 -103.5 147.5t-218.5 67.5v-555q66 -16 100.5 -26.5t81.5 -38t84 -68.5q119 -127 119 -293q0 -162 -109.5 -283.5t-275.5 -135.5v-95h-63v92 q-190 10 -289 122t-99 266zM252 1112q0 -209 283 -272v538q-127 -12 -205 -90t-78 -176zM598 43q133 16 207 103t74 192q0 123 -86 205q-68 68 -195 94v-594z" />
<glyph unicode="%" horiz-adv-x="1849" d="M147 1124q0 174 94.5 293t221.5 119q84 0 151 -63q184 -162 414 -162q256 0 408 194q25 31 43 31q16 0 28.5 -12.5t12.5 -28.5q0 -14 -19 -37l-1089 -1544q-20 -29 -43 -29q-16 0 -28.5 12.5t-12.5 28.5q0 14 20 43l967 1366l-2 2q-127 -72 -285 -71q-186 0 -330 90 q47 -106 47 -234q0 -172 -81.5 -291.5t-200.5 -119.5q-125 0 -220.5 117.5t-95.5 295.5zM274 1122.5q0 -98.5 16.5 -171t39 -108.5t53.5 -57.5t49.5 -25.5t34.5 -4q88 0 157.5 104.5t69.5 263.5q0 158 -69.5 262.5t-157.5 104.5q-16 0 -34.5 -4t-49.5 -25.5t-53.5 -58.5 t-39 -109.5t-16.5 -171zM1102 299q0 174 94 293t221 119q119 0 201 -120t82 -294q0 -172 -82 -292t-201 -120q-125 0 -220 118t-95 296zM1229 297q0 -98 16.5 -171t39 -108.5t53 -57t49 -26t34.5 -4.5q88 0 158 104.5t70 264.5q0 158 -70 262.5t-158 104.5q-16 0 -34.5 -4.5 t-49 -26t-53 -58t-39 -109.5t-16.5 -171z" />
<glyph unicode="&#x26;" horiz-adv-x="1728" d="M119 262q0 51 19.5 95t42 71t73.5 80l213 213q-84 233 -84 416q0 154 89 241.5t198 87.5q66 0 109.5 -46t59 -102t15.5 -116q0 -145 -246 -397l-12 -21q0 -20 43 -103t130 -210t181 -235q90 104 156 200q100 141 168 258q8 16 8 39q0 41 -40 63.5t-99 22.5v64 q82 -6 250 -6l198 6v-64q-86 0 -145 -28.5t-85 -59.5t-69 -98q-106 -170 -167.5 -259t-141.5 -179q59 -59 94 -88t92.5 -59t112.5 -30q86 0 164 58.5t82 171.5h51q-2 -129 -90 -211t-215 -82q-188 0 -377 156q-188 -156 -389 -156q-162 0 -275.5 88t-113.5 219zM289 326 q0 -115 60.5 -211.5t174.5 -96.5q170 0 334 129q-256 262 -371 531q-119 -117 -158.5 -179t-39.5 -173zM512 1182q0 -166 63 -346q227 236 228 366q0 16 -3 40t-13.5 71t-40 77.5t-74.5 30.5q-59 0 -109.5 -58t-50.5 -181z" />
<glyph unicode="'" horiz-adv-x="653" d="M256 1372q-2 31 19.5 51.5t52 20.5t52 -20.5t19.5 -51.5l-45 -506h-53z" />
<glyph unicode="(" horiz-adv-x="892" d="M244 512q0 256 79.5 486.5t235.5 400.5q35 39 89 88t73 49q20 0 20 -20q0 -6 -8 -19q-47 -45 -81 -82t-94 -127t-98 -187t-68 -254t-30 -335q0 -639 371 -985q8 -8 8 -19q0 -20 -20 -20q-12 0 -60.5 36t-120 120t-137 197.5t-112.5 291.5t-47 379z" />
<glyph unicode=")" horiz-adv-x="892" d="M150 -492q0 6 8 19q203 190 286 440q84 252 84 545q0 641 -368 983q-10 12 -10 21q0 20 22 20q10 0 57 -36t119 -120t138.5 -196.5t113.5 -291.5t47 -380t-47 -380t-113.5 -291.5t-138.5 -196.5t-119 -120t-57 -36q-22 0 -22 20z" />
<glyph unicode="*" horiz-adv-x="1132" d="M170 903q0 35 45 55l303 138l-305 137q-43 20 -43 53q0 27 16.5 42t38.5 15q16 0 39 -16l279 -192l-29 303l-4 45q0 25 17.5 39t37.5 14q57 0 53 -76l-30 -325l276 192q23 16 41 16q23 0 39.5 -15t16.5 -42q0 -35 -46 -55l-303 -137l306 -138q43 -20 43 -53 q0 -27 -16.5 -42t-39.5 -15q-16 0 -39 16l-278 193l28 -303l5 -45q0 -25 -17.5 -39.5t-38.5 -14.5q-29 0 -45 21.5t-8 34.5v10l31 336l-277 -193q-23 -16 -41 -16q-23 0 -39 15t-16 42z" />
<glyph unicode="+" horiz-adv-x="1728" d="M147 512q0 41 68 41h608v608q0 68 41 68t41 -68v-608h606q68 0 68 -41t-68 -41h-606v-608q0 -68 -41 -68t-41 68v608h-608q-68 0 -68 41z" />
<glyph unicode="," horiz-adv-x="653" d="M217 109q0 43 28.5 75.5t80.5 32.5q66 0 99.5 -61.5t33.5 -153.5q0 -68 -17.5 -133.5t-43 -111.5t-53.5 -81.5t-48.5 -53t-28.5 -17.5q-23 0 -22 22q0 10 20 27q147 147 148 348q0 25 -4 37q-29 -39 -84 -39q-51 0 -80 33t-29 76z" />
<glyph unicode="-" horiz-adv-x="774" d="M53 383v119h572v-119h-572z" />
<glyph unicode="." horiz-adv-x="653" d="M217 108.5q0 45.5 32 77t77 31.5t76.5 -31.5t31.5 -77t-31.5 -77t-76.5 -31.5t-77 31.5t-32 77z" />
<glyph unicode="/" horiz-adv-x="1132" d="M147 -471q0 12 11 37l741 1929q14 41 43 41q16 0 28.5 -12.5t12.5 -28.5q0 -12 -10 -37l-742 -1929q-14 -41 -43 -41q-16 0 -28.5 12.5t-12.5 28.5z" />
<glyph unicode="0" horiz-adv-x="1132" d="M117 655q0 311 90 492q55 106 151.5 161.5t206.5 55.5q106 0 202.5 -53.5t152.5 -159.5q94 -178 94 -496q0 -313 -88 -483q-117 -217 -361 -217q-240 0 -356 209q-92 167 -92 491zM287 678q0 -311 26 -436q29 -131 101.5 -186.5t150.5 -55.5q27 0 54.5 7t70.5 29.5t78 79 t51 140.5q25 121 25 422q0 311 -29 420q-16 68 -49 116t-72 68.5t-69.5 28.5t-59.5 8q-76 0 -152.5 -53.5t-103.5 -188.5q-22 -116 -22 -399z" />
<glyph unicode="1" horiz-adv-x="1132" d="M227 1169v64q254 0 385 131q35 0 41 -8t6 -45v-1149q0 -41 7.5 -57.5t50.5 -29t139 -12.5h72v-63q-74 6 -344.5 6t-343.5 -6v63h71q96 0 139.5 12.5t50.5 29t7 57.5v1063q-115 -56 -281 -56z" />
<glyph unicode="2" horiz-adv-x="1132" d="M135 0q0 37 3 47t18 25l444 469q209 223 209 426q0 141 -80 237t-217 96q-102 0 -182 -57t-113 -151q6 2 25 2q51 0 79.5 -32t28.5 -75q0 -55 -35.5 -81.5t-70.5 -26.5q-14 0 -32.5 3t-47.5 31.5t-29 79.5q0 145 113.5 258t290.5 113q195 0 325.5 -110.5t130.5 -286.5 q0 -68 -18.5 -125.5t-61.5 -112.5t-74.5 -88t-95.5 -92q-16 -14 -81.5 -67.5t-83.5 -71.5l-279 -252h395q182 0 197 14q23 18 51 184h51l-57 -356h-803z" />
<glyph unicode="3" horiz-adv-x="1132" d="M119 276q0 61 34.5 90t79.5 29q47 0 81 -30.5t34 -84t-38 -86.5q-30 -27 -73 -28q-10 0 -22 2q39 -63 113.5 -101t126 -46.5t94.5 -8.5q100 0 176 79t76 259q0 160 -68.5 250t-193.5 90h-103q-31 0 -40 3t-9 19.5t9.5 19.5t39.5 5q109 6 154 20.5t88 63.5q86 104 86 262 q0 119 -62.5 174.5t-150.5 55.5q-82 0 -166 -32t-123 -95q125 0 125 -103q0 -45 -28.5 -74.5t-75.5 -29.5q-45 0 -75 28.5t-30 77.5q0 121 110.5 200t270.5 79t276.5 -81t116.5 -202q0 -104 -71.5 -205.5t-227.5 -154.5q164 -31 261.5 -136.5t97.5 -234.5 q0 -158 -130 -276.5t-327 -118.5q-180 0 -308 91t-128 230z" />
<glyph unicode="4" horiz-adv-x="1132" d="M88 338v63l660 957q16 20 22 24t21 4q12 0 18 -2t10 -10t4 -15v-26v-932h219v-63h-219v-178q0 -59 25.5 -78t136.5 -19h47v-63q-76 6 -287 6q-213 0 -288 -6v63h47q111 0 136.5 18.5t25.5 78.5v178h-578zM145 401h533v775z" />
<glyph unicode="5" horiz-adv-x="1132" d="M135 332q0 57 32 81.5t69 24.5q47 0 74.5 -29.5t27.5 -70.5t-27.5 -70.5t-74.5 -29.5q-23 0 -35 4q33 -98 122 -164t201 -66q143 0 230 125q59 92 59 287q0 188 -51 281q-66 111 -178 110q-174 0 -273 -135q-23 -27 -37 -27q-18 0 -22 11.5t-4 42.5v608q0 49 20 49 q6 0 25 -10q137 -55 286.5 -55.5t284.5 55.5l27 10q20 0 20 -23q0 -10 -17 -33.5t-53 -54t-83 -58.5t-116 -47.5t-140 -19.5q-96 0 -191 29v-405q109 109 277 108q174 0 290.5 -133t116.5 -315q0 -190 -138 -323.5t-329 -133.5q-170 0 -281.5 115t-111.5 262z" />
<glyph unicode="6" horiz-adv-x="1132" d="M119 649q0 317 171 516t394 199q135 0 204.5 -63.5t69.5 -157.5q0 -53 -30.5 -76t-63.5 -23q-37 0 -65.5 25t-28.5 70q0 92 111 92q-55 82 -193 82q-37 0 -78 -9.5t-98 -47t-101 -98t-76 -177.5t-32 -272v-50q31 82 100.5 147.5t178.5 65.5q80 0 145.5 -25.5t91 -46 t68.5 -61.5q125 -127 125 -321q0 -201 -131 -332t-312 -131q-86 0 -161.5 35t-142 110.5t-106.5 215.5t-40 333zM307 463q0 -182 41 -289q6 -18 20.5 -39.5t40 -52.5t67.5 -50.5t93 -19.5q129 0 205 111q25 39 37 91t14 91t2 113q0 205 -43 280q-72 129 -205 129 t-202.5 -113.5t-69.5 -250.5z" />
<glyph unicode="7" horiz-adv-x="1132" d="M147 963l68 421h51q4 -20 9.5 -28t30 -17.5t75.5 -13.5q74 -6 166 -6h524q0 -49 -18 -72l-291 -387q-162 -215 -162 -692v-100q0 -113 -94 -113t-94 113q0 49 6 103t29.5 171t89 258t168.5 279l208 282h-452q-184 0 -207 -10q-25 -14 -55 -188h-52z" />
<glyph unicode="8" horiz-adv-x="1132" d="M119 309q0 76 28.5 139.5t86 110.5t96.5 71.5t102 57.5q-63 39 -94 60.5t-76 63.5t-64.5 93t-19.5 117q0 143 114 242.5t275 99.5q154 0 269.5 -84t115.5 -219q0 -190 -260 -320l123 -75q197 -123 197 -324q0 -162 -131 -274.5t-318 -112.5q-176 0 -310 97t-134 257z M221 309q0 -127 102.5 -212t243.5 -85q137 0 239.5 72t102.5 186q0 55 -30.5 104.5t-56 69t-66.5 43.5l-275 168q-127 -61 -193.5 -153.5t-66.5 -192.5zM268 1102q0 -47 24.5 -86t50.5 -57.5t79 -51.5l223 -135q29 14 57.5 33.5t68.5 56.5t65.5 88t25.5 109q0 111 -88 182.5 t-211 71.5q-119 0 -207 -58.5t-88 -152.5z" />
<glyph unicode="9" horiz-adv-x="1132" d="M119 903q0 106 32.5 182t104.5 146q129 133 315 133q84 0 158 -34t139.5 -108.5t104.5 -215t39 -332.5q0 -317 -161 -518t-380 -201q-141 0 -220 60.5t-79 160.5q0 53 30.5 75.5t63.5 22.5q37 0 65.5 -24.5t28.5 -69.5q0 -37 -23.5 -65.5t-82.5 -28.5q61 -74 215 -74 q55 0 108.5 22.5t114 80t98 182.5t37.5 303v64q-90 -215 -278 -215q-111 0 -179.5 36.5t-133.5 104.5q-117 123 -117 313zM303 901q0 -207 45 -287q72 -121 203 -120q92 0 156.5 61t90 141t25.5 164q0 195 -41 297q-2 6 -8 19.5t-23.5 38t-40 45t-59.5 37t-78 16.5 q-131 0 -208 -109q-41 -57 -51.5 -120.5t-10.5 -182.5z" />
<glyph unicode=":" horiz-adv-x="653" d="M217 108.5q0 45.5 32 77t77 31.5t76.5 -31.5t31.5 -77t-31.5 -77t-76.5 -31.5t-77 31.5t-32 77zM217 774q0 45 32 77t77 32t76.5 -32t31.5 -77t-31.5 -76.5t-76.5 -31.5t-77 31.5t-32 76.5z" />
<glyph unicode=";" horiz-adv-x="653" d="M217 109q0 43 28.5 75.5t80.5 32.5q115 0 114 -211q0 -109 -40 -208t-78.5 -146t-53.5 -47q-23 0 -22 22q0 8 16 27q133 152 133 369q-18 -16 -53 -21q-6 -2 -16 -2q-51 0 -80 33t-29 76zM217 774q0 45 32 77t77 32t76.5 -32t31.5 -77t-31.5 -76.5t-76.5 -31.5t-77 31.5 t-32 76.5z" />
<glyph unicode="&#x3c;" horiz-adv-x="1728" d="M207 512q0 25 41 45l1229 549q43 -4 43 -43q0 -4 -1 -9t-2 -8.5t-5.5 -6.5t-5.5 -5t-6 -4t-6 -3t-7 -3l-6 -4l-1133 -508l1133 -508q2 0 4 -2q35 -16 35 -41q0 -20 -13.5 -30.5t-27.5 -10.5q-10 0 -35 10l-1198 537q-39 18 -39 45z" />
<glyph unicode="=" horiz-adv-x="1728" d="M147 313q0 41 70 41h1292q70 0 70 -41t-68 -41h-1296q-68 0 -68 41zM147 711q0 41 68 41h1296q68 0 68 -41t-70 -41h-1292q-70 0 -70 41z" />
<glyph unicode="&#x3e;" horiz-adv-x="1728" d="M207 -41q0 25 39 45l1132 508l-1132 508q-39 20 -39 45q0 14 12 26.5t29 12.5q10 0 35 -10l1198 -537q39 -18 39 -45q0 -25 -41 -45l-1229 -549q-20 2 -31.5 15.5t-11.5 25.5z" />
<glyph unicode="?" horiz-adv-x="1073" d="M147 1171q0 111 100.5 192t268.5 81q219 0 313.5 -84t94.5 -193q0 -129 -105 -202q-287 -190 -287 -455v-72q0 -23 -1 -32t-7 -16t-18 -7q-16 0 -20.5 9t-4.5 40v90q0 264 205 469q68 68 68 185q0 43 -5.5 71.5t-26 68.5t-74.5 61.5t-138 21.5q-205 0 -287 -139 q113 0 113 -93q0 -41 -25.5 -67.5t-68.5 -26.5q-39 0 -67 24.5t-28 73.5zM397 108.5q0 45.5 32 77t77 31.5t76.5 -31.5t31.5 -77t-31.5 -77t-76.5 -31.5t-77 31.5t-32 77z" />
<glyph unicode="@" horiz-adv-x="1728" d="M147 711q0 303 210 518t507 215q285 0 500 -209t215 -539q0 -434 -219 -434q-74 0 -136.5 39t-74.5 111q-111 -150 -287 -150q-174 0 -301 130t-127 318.5t127 318.5t301 130q188 0 305 -174h76q35 0 42 -7t7 -42v-492q0 -137 76 -137q92 0 126 101.5t34 279.5 q0 219 -100.5 385t-250 246t-315.5 80q-272 0 -467.5 -201t-195.5 -487q0 -279 191.5 -483.5t481.5 -204.5q289 0 592 131q12 6 47 6h19q20 0 27.5 -1t13.5 -5t6 -15q0 -16 -121 -61q-289 -100 -582 -101q-315 0 -521 219.5t-206 514.5zM575 711q0 -170 86.5 -287 t202.5 -117q160 0 262 156q25 39 25 80v336q0 31 -4 44t-27 46q-104 145 -256 145q-117 0 -203 -116.5t-86 -286.5z" />
<glyph unicode="A" d="M98 0v63q63 0 109.5 14.5t71 41t34 43t19.5 43.5l452 1222q8 23 16.5 31t30.5 8q25 0 32 -7t20 -38l475 -1282q16 -45 47 -60.5t125 -15.5h37v-63l-269 6q-221 0 -294 -6v63q168 0 167 60q0 10 -10 37l-117 313h-544l-99 -266q-10 -25 -10 -41q0 -41 39 -72t113 -31v-63 l-238 6q-78 0 -207 -6zM522 537h500l-250 675z" />
<glyph unicode="B" horiz-adv-x="1579" d="M119 0v63h49q111 0 136.5 18.5t25.5 78.5v1079q0 59 -25.5 77.5t-136.5 18.5h-49v64h774q203 0 340 -103.5t137 -242.5q0 -115 -102.5 -204t-255.5 -118q184 -20 301 -122.5t117 -233.5q0 -150 -136.5 -262.5t-343.5 -112.5h-831zM500 145q0 -53 15 -67.5t85 -14.5h283 q156 0 249 95.5t93 218.5t-83 225.5t-231 102.5h-411v-560zM500 750h319q164 0 258 92t94 211q0 102 -74.5 192t-217.5 90h-279q-70 0 -85 -14t-15 -68v-503z" />
<glyph unicode="C" horiz-adv-x="1609" d="M147 700q0 309 221.5 526.5t526.5 217.5q227 0 403 -182l107 157q16 25 32.5 25t19.5 -9.5t3 -39.5v-486q0 -33 -4 -41t-29 -8q-14 0 -20 3t-8 9.5t-4 22.5q-35 227 -169 356t-306 129q-53 0 -114 -12t-144.5 -55t-147 -113t-110 -200t-46.5 -302q0 -164 42 -289.5 t104.5 -197.5t143.5 -118t147.5 -60.5t128.5 -14.5q184 0 328.5 125t156.5 336q2 10 2 14.5t2 9.5t7 7t14 2q27 0 26 -35q0 -197 -158.5 -359.5t-404.5 -162.5q-307 0 -528.5 217t-221.5 528z" />
<glyph unicode="D" horiz-adv-x="1697" d="M117 0v63h49q111 0 136.5 18.5t25.5 78.5v1079q0 59 -26 77.5t-136 18.5h-49v64h774q272 0 464.5 -209t192.5 -502q0 -287 -192.5 -487.5t-464.5 -200.5h-774zM504 145q0 -53 15.5 -67.5t84.5 -14.5h232q231 0 374 160q133 154 133 465q0 305 -114 455q-145 193 -393 192 h-232q-70 0 -85 -14t-15 -68v-1108z" />
<glyph unicode="E" horiz-adv-x="1519" d="M113 0v63h49q111 0 136.5 18.5t25.5 78.5v1073q0 59 -26 77.5t-136 18.5h-49v64h1200l57 -461h-51q-12 117 -33.5 186.5t-68 120.5t-122 70.5t-196.5 19.5h-293q-70 0 -85 -14.5t-15 -67.5v-491h201q145 0 188 49t43 190h51v-542h-51q0 141 -43 190t-188 49h-201v-547 q0 -53 15.5 -67.5t84.5 -14.5h309q109 0 184 20.5t121 51.5t77.5 95.5t47 127t33.5 170.5h52l-87 -528h-1230z" />
<glyph unicode="F" horiz-adv-x="1460" d="M113 0v63h49q111 0 136.5 18.5t25.5 78.5v1073q0 59 -26 77.5t-136 18.5h-49v64h1167l57 -461h-51q-14 117 -33.5 184.5t-63.5 119.5t-118 72.5t-192 20.5h-273q-70 0 -85 -14.5t-15 -67.5v-518h192q143 0 184.5 49t41.5 191h51v-543h-51q0 141 -41 190.5t-185 49.5h-192 v-504q0 -43 7 -59.5t50 -28t137 -11.5h68v-63q-74 6 -344 6q-239 0 -311 -6z" />
<glyph unicode="G" horiz-adv-x="1742" d="M147 700q0 307 220.5 525.5t527.5 218.5q76 0 142.5 -17.5t119.5 -52.5t78 -55.5t61 -56.5l107 157q16 25 32.5 25t19.5 -9.5t3 -39.5v-486q0 -33 -4 -41t-29 -8q-14 0 -20 3t-8 9.5t-4 22.5q-35 229 -168 357t-305 128q-59 0 -124 -14t-146 -59t-143.5 -116t-105.5 -199 t-43 -291.5t43 -290.5t105.5 -199t144.5 -118t150.5 -60.5t132.5 -14.5q23 0 47.5 1t82.5 14.5t100 37t77 75t35 120.5v131q0 41 -7 57.5t-50 29t-140 12.5h-71v63q74 -6 340 -6l260 6v-63q-100 0 -125 -12.5t-25 -77.5v-357q0 -47 -18 -47q-16 0 -63.5 46t-67.5 81 q-51 -86 -165 -130t-245 -44q-311 0 -531.5 218t-220.5 527z" />
<glyph unicode="H" d="M113 0v63h49q111 0 136.5 18.5t25.5 78.5v1079q0 59 -26 77.5t-136 18.5h-49v64q72 -6 303 -6q229 0 301 6v-64h-49q-111 0 -136.5 -18.5t-25.5 -77.5v-479h653v479q0 59 -25.5 77.5t-136.5 18.5h-49v64q72 -6 303 -6q229 0 301 6v-64h-49q-111 0 -136.5 -18.5 t-25.5 -77.5v-1079q0 -59 26 -78t136 -19h49v-63q-72 6 -303 6q-229 0 -301 -6v63h49q111 0 136.5 18.5t25.5 78.5v536h-653v-536q0 -59 25.5 -78t136.5 -19h49v-63q-72 6 -303 6q-229 0 -301 -6z" />
<glyph unicode="I" horiz-adv-x="831" d="M102 0v63h54q115 0 141.5 18.5t26.5 78.5v1079q0 59 -27 77.5t-141 18.5h-54v64q72 -6 314 -6q240 0 311 6v-64h-53q-115 0 -141.5 -18.5t-26.5 -77.5v-1079q0 -59 26.5 -78t141.5 -19h53v-63q-72 6 -313 6q-240 0 -312 -6z" />
<glyph unicode="J" horiz-adv-x="1161" d="M127 229q0 61 36 90t79 29q45 0 79.5 -30.5t34.5 -84.5q0 -115 -131 -114q31 -51 96.5 -85t141.5 -34q90 0 156.5 82t66.5 223v932q0 43 -8 59.5t-51 27.5t-142 11h-73v64q78 -6 344 -6l264 6v-64q-104 0 -131 -12t-27 -74v-909q0 -72 -2 -84q-18 -135 -132 -218 t-259 -83q-147 0 -244.5 80.5t-97.5 193.5z" />
<glyph unicode="K" horiz-adv-x="1726" d="M113 0v63h49q111 0 136.5 18.5t25.5 78.5v1079q0 59 -26 77.5t-136 18.5h-49v64q72 -6 303 -6q229 0 301 6v-64h-49q-111 0 -136.5 -18.5t-25.5 -77.5v-655l682 614q43 41 43 72q0 12 -5 24.5t-26.5 26.5t-56.5 14v64q70 -6 260 -6q121 0 174 6v-64q-168 -2 -301 -125 l-387 -352l491 -690q27 -39 51.5 -60.5t56.5 -30.5t53.5 -11.5t66.5 -2.5v-63l-238 6q-221 0 -293 -6v63q117 0 117 60q0 27 -33 70l-397 555l-258 -234v-354q0 -59 25.5 -78t136.5 -19h49v-63q-72 6 -303 6q-229 0 -301 -6z" />
<glyph unicode="L" horiz-adv-x="1398" d="M113 0v63h49q111 0 136.5 18.5t25.5 78.5v1079q0 59 -26 77.5t-136 18.5h-49v64q72 -6 311 -6q270 0 344 6v-64h-68q-94 0 -137 -12t-50 -28.5t-7 -57.5v-1092q0 -53 15.5 -67.5t84.5 -14.5h193q78 0 141.5 16.5t104 39t73.5 64.5t49.5 75t29.5 90.5t18.5 89t11.5 90.5 h51l-57 -528h-1108z" />
<glyph unicode="M" horiz-adv-x="2025" d="M121 0v63q74 0 121 14.5t64.5 42t21.5 46t4 49.5v1024q0 59 -25.5 77.5t-136.5 18.5h-49v64h346q35 0 47 -5t23 -32l475 -1167l475 1165q12 29 22.5 34t46.5 5h347v-64h-50q-111 0 -136 -18.5t-25 -77.5v-1079q0 -59 25.5 -78t135.5 -19h50v-63q-76 6 -293 6 q-219 0 -295 -6v63h49q111 0 136.5 18.5t25.5 78.5v1177l-2 2l-531 -1302q-16 -37 -38.5 -37t-39.5 37l-524 1288l-2 -2v-1108q0 -31 4 -49.5t21.5 -46t64.5 -42t121 -14.5v-63l-240 6z" />
<glyph unicode="N" d="M113 0v63q74 0 121 14.5t64 42t21.5 47t4.5 52.5v1061q0 33 -2 37q-6 18 -209 18v64h346q31 0 40 -4t25 -25l760 -1069v879q0 33 -4 52t-21.5 47t-64.5 42t-121 14v64l240 -6l239 6v-64q-74 0 -121 -14t-64 -42t-21.5 -47.5t-4.5 -51.5v-1123q0 -37 -4 -47t-24.5 -10 t-36.5 25l-895 1263v-1069q0 -33 4 -52.5t21.5 -47t64.5 -42t121 -14.5v-63l-240 6z" />
<glyph unicode="O" horiz-adv-x="1728" d="M147 694q0 311 210 530.5t507 219.5q293 0 504 -218t211 -532q0 -307 -210 -523t-507 -216q-293 0 -504 215t-211 524zM358 725q0 -186 47.5 -330.5t124 -225.5t161.5 -121t173 -40q84 0 168 39t162 118t126 224.5t48 335.5q0 176 -48 311t-125 209t-162 111t-171 37 q-84 0 -167 -36t-161.5 -109.5t-127 -209t-48.5 -313.5z" />
<glyph unicode="P" horiz-adv-x="1519" d="M117 0v63h49q111 0 136.5 18.5t25.5 78.5v1079q0 59 -26 77.5t-136 18.5h-49v64h747q213 0 359.5 -112.5t146.5 -268.5q0 -154 -148.5 -262.5t-340.5 -108.5h-371v-487q0 -59 25.5 -78t136.5 -19h49v-63q-72 6 -303 6q-229 0 -301 -6zM504 700h307q98 0 169 27 t104.5 58.5t52 84t20.5 80t2 68.5q0 43 -2 70.5t-20.5 80t-52 84t-104.5 57t-169 25.5h-207q-70 0 -85 -14t-15 -68v-553z" />
<glyph unicode="Q" horiz-adv-x="1728" d="M147 694q0 311 210 530.5t507 219.5q293 0 504 -218t211 -532q0 -238 -127 -421t-311 -261q47 -109 93 -153.5t115.5 -44.5t128 44t68.5 128q4 37 23 37q23 0 22 -43q0 -49 -11 -106.5t-37.5 -122t-82 -106.5t-129.5 -42q-55 0 -97 23.5t-66.5 53t-45 91t-30 99.5 t-23.5 116q-96 -31 -205 -31q-297 0 -507 216t-210 523zM352 694q0 -154 35 -277.5t93.5 -199.5t117.5 -120t125 -66q-31 51 -31 100q0 70 49.5 121t124.5 51q84 0 139.5 -56.5t104.5 -162.5q264 178 264 610q0 180 -47 320.5t-124 219.5t-164 119t-177 40q-86 0 -172 -39 t-163.5 -117t-126 -219.5t-48.5 -323.5zM737 131q0 -23 8.5 -48.5t39 -51t79.5 -25.5q100 0 189 45q-47 207 -187 207q-57 0 -93 -39t-36 -88z" />
<glyph unicode="R" horiz-adv-x="1638" d="M117 0v63h49q111 0 136.5 18.5t25.5 78.5v1079q0 59 -26 77.5t-136 18.5h-49v64h663q231 0 395 -109.5t164 -259.5q0 -109 -99 -200t-277 -134q119 -33 188 -106q45 -45 61.5 -92t34.5 -168q31 -201 57.5 -265.5t102.5 -64.5q29 0 54.5 10t53 54.5t35.5 117.5q4 33 25 33 q27 0 27 -35q0 -27 -9.5 -60.5t-30 -72.5t-63.5 -65.5t-100 -26.5q-166 0 -262 84q-61 55 -74.5 112.5t-13.5 182.5q0 121 -11.5 169t-66.5 101q-78 74 -211 74h-256v-518q0 -59 25.5 -78t136.5 -19h49v-63q-74 6 -299 6t-299 -6zM504 723h248q377 0 376 307q0 74 -19 128 t-59 87t-77 52.5t-99.5 26.5t-97.5 9t-96 2q-104 0 -123 -2q-35 -4 -44 -19.5t-9 -60.5v-530z" />
<glyph unicode="S" horiz-adv-x="1251" d="M147 1047q0 164 122 280.5t298 116.5q90 0 166 -29t107.5 -53.5t72.5 -65.5l76 121q12 20 16.5 23.5t14.5 3.5q16 0 19 -9.5t3 -39.5v-412q0 -23 -1 -31t-7 -13t-18 -5q-16 0 -19.5 7t-7.5 30q-25 180 -125 297.5t-295 117.5q-127 0 -208.5 -79.5t-81.5 -188.5 q0 -74 51 -151.5t170 -106.5l278 -67q158 -39 241 -159t83 -255q0 -170 -119 -297t-305 -127q-258 0 -402 147l-75 -122q-16 -25 -31 -25q-16 0 -19.5 10t-3.5 39v410q0 23 1.5 31t7.5 14t18 6q23 0 25 -19q6 -217 141 -323q133 -104 336 -105q133 0 214 88.5t81 204.5 q0 109 -74 195q-45 49 -85 66.5t-140 41.5q-16 4 -50 11.5l-51 11.5q-143 35 -201.5 60.5t-125.5 95.5q-97 111 -97 254z" />
<glyph unicode="T" horiz-adv-x="1609" d="M106 926l39 460h1317l39 -460h-51q-12 139 -27.5 208.5t-59.5 116.5t-110.5 59.5t-193.5 12.5q-98 0 -119 -4q-23 -2 -32 -13.5t-11 -23.5t-2 -41v-1079q0 -41 8 -57.5t55.5 -29t151.5 -12.5h82v-63q-84 6 -389 6q-303 0 -387 -6v63h82q104 0 151 12.5t55.5 29t8.5 57.5 v1079q0 29 -2 41t-11.5 23.5t-31.5 13.5q-20 4 -119 4q-86 0 -139.5 -5t-98.5 -22.5t-68.5 -41t-42 -72.5t-26.5 -106.5t-16 -149.5h-52z" />
<glyph unicode="U" d="M113 1335v64q72 -6 303 -6q229 0 301 6v-64h-49q-111 0 -136.5 -18.5t-25.5 -77.5v-776q0 -109 27.5 -193t66.5 -130t91 -75.5t93 -38t80 -8.5q166 0 290 124t124 331v711q0 31 -4 49t-21.5 46t-64.5 42t-121 14v64l244 -6l241 6v-64q-74 0 -121 -14t-64 -43t-21.5 -48.5 t-4.5 -51.5v-738q0 -172 -134 -328.5t-347 -156.5q-219 0 -377.5 149.5t-158.5 364.5v770q0 59 -26 77.5t-136 18.5h-49z" />
<glyph unicode="V" d="M70 1335v64l260 -6q223 0 295 6v-64q-166 0 -166 -59q0 -14 10 -35l424 -1051l403 1004q12 27 13 41q0 37 -34 67.5t-112 32.5v64l234 -6q102 0 198 6v-64q-174 0 -227 -133l-485 -1206q-10 -25 -18.5 -33t-33.5 -8q-23 0 -30.5 8t-18.5 33l-510 1261q-23 53 -54 65.5 t-148 12.5z" />
<glyph unicode="W" horiz-adv-x="2265" d="M68 1335v64l249 -6q221 0 293 6v-64q-172 0 -172 -61q0 -10 11 -37l346 -1010l301 877l6 24q0 6 -24.5 78t-33.5 86q-16 27 -46.5 35t-123.5 8v64l248 -6q219 0 293 6v-64q-172 0 -172 -61q0 -4 1 -9t4 -12.5t3 -9.5l351 -1016l327 959q10 27 10 41q0 45 -47 75.5 t-127 32.5v64l244 -6q94 0 186 6v-64q-72 0 -118.5 -27.5t-62 -53t-27.5 -62.5l-412 -1196q-8 -25 -15.5 -33t-25.5 -8q-27 0 -41 41l-363 1055l-360 -1055q-14 -41 -41 -41q-14 0 -22.5 6t-10.5 11l-8 22l-432 1261q-12 39 -35.5 56.5t-52 20.5t-100.5 3z" />
<glyph unicode="X" d="M80 0v63q211 0 305 132l360 501l-403 568q-29 43 -65.5 57t-129.5 14h-38v64l266 -6q229 0 303 6v-64q-55 0 -92 -18.5t-37 -40.5q0 -12 14 -31l289 -403l252 348q23 31 22 55q0 33 -30.5 60.5t-89.5 29.5v64q74 -6 262 -6l227 6v-64q-211 0 -303 -129l-301 -420 l459 -649q33 -47 73.5 -60.5t122.5 -13.5h39v-63l-266 6q-229 0 -301 -6v63q43 0 73.5 12.5t42 25t11.5 22.5q0 8 -17 31l-344 487l-315 -436q-20 -29 -20 -51q0 -31 29.5 -59.5t90.5 -31.5v-63q-82 6 -262 6z" />
<glyph unicode="Y" d="M53 1335v64l269 -6q231 0 303 6v-64q-139 0 -140 -49q0 -14 19 -41l395 -602l365 555q23 35 22 59q0 78 -110 78v64l235 -6q104 0 201 6v-64q-182 -4 -266 -131l-426 -645v-395q0 -63 25.5 -82t137.5 -19h47v-63q-74 6 -299 6t-299 -6v63h50q111 0 136 18.5t25 78.5v399 l-462 707q-27 41 -66 55t-123 14h-39z" />
<glyph unicode="Z" horiz-adv-x="1370" d="M147 35q0 20 15 41l846 1259h-351q-217 0 -317 -90t-111 -307h-51l23 461h966h26q7 0 15.5 -4t10.5 -10.5t2 -18.5q0 -18 -15 -39l-846 -1257h373q141 0 230.5 31.5t134.5 102t61.5 144.5t22.5 199h51l-35 -547h-997q-35 0 -44.5 5t-9.5 30z" />
<glyph unicode="[" horiz-adv-x="653" d="M285 -512v2048h290v-82h-208v-1884h208v-82h-290z" />
<glyph unicode="\" horiz-adv-x="1024" d="M115 1495q0 16 12 28.5t29 12.5q29 0 45 -45l696 -1925l10 -37q0 -16 -12 -28.5t-29 -12.5q-29 0 -45 45l-696 1925z" />
<glyph unicode="]" horiz-adv-x="653" d="M76 -430h209v1884h-209v82h291v-2048h-291v82z" />
<glyph unicode="^" horiz-adv-x="1138" d="M-10 1196l579 328l580 -328l-25 -45l-557 252l-555 -252z" />
<glyph unicode="_" d="M0 -229h1667v-54h-1667v54z" />
<glyph unicode="`" horiz-adv-x="1132" d="M301 1350q0 27 22.5 50t51.5 23q31 0 74 -51l249 -297l-34 -39l-326 252q-37 31 -37 62z" />
<glyph unicode="a" horiz-adv-x="1255" d="M70 0v51q45 2 78.5 16.5t55 42t31 45t21.5 48.5l330 846q8 23 15 30.5t28 7.5q29 0 45 -45l352 -909q20 -53 47 -67.5t113 -14.5v-51q-147 6 -199 6l-217 -6v51q109 0 109 58q0 14 -43 122l-45 115h-424q-70 -182 -70 -203q0 -16 4 -32.5t26.5 -37t61.5 -22.5v-51l-170 6 q-81 0 -149 -6zM387 397h383l-190 494z" />
<glyph unicode="b" horiz-adv-x="1187" d="M94 0v51q100 0 124 16.5t24 79.5v758q0 63 -23.5 79.5t-124.5 16.5v52h576q160 0 263 -79t103 -181q0 -86 -74.5 -152t-187.5 -90q133 -16 221 -92t88 -176q0 -113 -103 -198t-267 -85h-619zM377 139q0 -59 13 -73.5t69 -14.5h200q127 0 190.5 74t63.5 158t-56 162.5 t-173 78.5h-307v-385zM377 569h229q76 0 131.5 23.5t83 60.5t39.5 72t12 68q0 25 -8 54.5t-29.5 67t-67.5 62t-112 24.5h-196q-55 0 -68.5 -14t-13.5 -74v-344z" />
<glyph unicode="c" horiz-adv-x="1210" d="M104 526.5q0 231.5 170 393t404 161.5q174 0 297 -129l80 105q20 25 30 24q20 0 21 -49v-346q0 -23 -1 -31t-7 -13t-19 -5q-18 0 -26 27q-27 182 -132.5 274t-230.5 92q-37 0 -79 -8t-104.5 -39t-109.5 -82t-81.5 -148.5t-34.5 -226.5q0 -127 33.5 -224t80.5 -148.5 t108.5 -83t105.5 -39.5t83 -8q137 0 244.5 92t118.5 247q2 10 2 14.5t2 9.5t7 7t13 2q27 0 27 -33q0 -145 -120 -268t-308 -123q-233 0 -403.5 162t-170.5 393.5z" />
<glyph unicode="d" horiz-adv-x="1277" d="M92 0v51q100 0 124 16.5t24 79.5v758q0 63 -23.5 79.5t-124.5 16.5v52h576q217 0 361.5 -159t144.5 -376q0 -213 -145.5 -365.5t-360.5 -152.5h-576zM381 139q0 -59 13.5 -73.5t68.5 -14.5h158q203 0 309 148q74 113 74 319q0 236 -91 350q-104 133 -292 133h-158 q-55 0 -68.5 -14t-13.5 -74v-774z" />
<glyph unicode="e" horiz-adv-x="1142" d="M88 0v51q100 0 124 16.5t24 79.5v752q0 63 -24 79.5t-124 16.5v52h911l39 -347h-51q-18 172 -78.5 233.5t-234.5 61.5h-209q-55 0 -68.5 -14t-13.5 -74v-338h143q111 0 143.5 36t32.5 143h52v-408h-52q0 106 -32.5 142t-143.5 36h-143v-379q0 -59 13.5 -73.5t68.5 -14.5 h221q98 0 159.5 17.5t99.5 63.5t55.5 104.5t31.5 160.5h51l-59 -397h-936z" />
<glyph unicode="f" horiz-adv-x="1097" d="M88 0v51q100 0 124 16.5t24 79.5v752q0 63 -24 79.5t-124 16.5v52h889l39 -347h-51q-16 174 -77 234.5t-229 60.5h-194q-55 0 -68.5 -14t-13.5 -74v-358h137q111 0 142.5 36t31.5 142h51v-408h-51q0 106 -31.5 142.5t-142.5 36.5h-137v-344q0 -74 30.5 -88.5t153.5 -14.5 v-51l-252 6z" />
<glyph unicode="g" horiz-adv-x="1312" d="M104 526q0 231 170 393t402 162q180 0 297 -129l80 105q20 25 30 24q20 0 21 -49v-346q0 -23 -1 -31t-7 -13t-19 -5q-18 0 -26 27q-27 182 -131.5 274t-229.5 92q-39 0 -82 -8t-104.5 -40t-108.5 -83t-80.5 -148.5t-33.5 -224.5q0 -125 32.5 -220t78.5 -146t107.5 -84 t108.5 -43t92 -10q104 0 174 40q39 23 57.5 49.5t21.5 45t3 49.5v61q0 66 -26.5 85.5t-136.5 19.5h-41v51q72 -6 264 -6q102 0 203 6v-51q-78 0 -96.5 -15.5t-18.5 -76.5v-232q0 -47 -19 -47q-16 0 -51 34t-51 58q-88 -123 -303 -123q-240 0 -408 163t-168 392z" />
<glyph unicode="h" horiz-adv-x="1255" d="M88 0v51q100 0 124 16.5t24 79.5v758q0 63 -24 79.5t-124 16.5v52l221 -6l221 6v-52q-100 0 -123.5 -16t-23.5 -80v-332h489v332q0 63 -23.5 79.5t-123.5 16.5v52l221 -6l221 6v-52q-100 0 -123.5 -16t-23.5 -80v-758q0 -63 23.5 -79.5t123.5 -16.5v-51l-221 6l-221 -6 v51q100 0 123.5 16.5t23.5 79.5v375h-489v-375q0 -63 23.5 -79.5t123.5 -16.5v-51l-221 6z" />
<glyph unicode="i" horiz-adv-x="618" d="M80 0v51q109 0 132.5 15.5t23.5 83.5v753q0 68 -24 83t-132 15v52l229 -6l230 6v-52q-109 0 -132.5 -15t-23.5 -83v-753q0 -68 23.5 -83.5t132.5 -15.5v-51l-230 6z" />
<glyph unicode="j" horiz-adv-x="868" d="M94 172q0 43 24.5 65.5t61.5 22.5q35 0 59.5 -24.5t24.5 -59.5q0 -31 -19.5 -57.5t-68.5 -28.5q61 -74 170 -74q59 0 110.5 54.5t51.5 167.5v661q0 63 -25.5 82.5t-130.5 19.5h-37v52q82 -6 250 -6q121 0 195 6v-52q-82 0 -96.5 -18t-14.5 -115v-573q0 -94 -2 -107 q-18 -98 -103 -157.5t-193.5 -59.5t-182.5 59.5t-74 141.5z" />
<glyph unicode="k" horiz-adv-x="1302" d="M88 0v51q100 0 124 16.5t24 79.5v758q0 63 -24 79.5t-124 16.5v52l221 -6l221 6v-52q-100 0 -123.5 -16t-23.5 -80v-454l461 403q68 59 67 109q0 33 -34 38v52q86 -6 190 -6q59 0 129 6v-52q-53 -4 -89 -18t-139.5 -93t-289.5 -249l354 -479q53 -72 90 -91.5t97 -19.5 v-51q-84 6 -175 6l-213 -6v51q66 0 66 43q0 35 -45 94l-272 367l-197 -174v-234q0 -63 23.5 -79.5t123.5 -16.5v-51l-221 6z" />
<glyph unicode="l" horiz-adv-x="1050" d="M88 0v51q100 0 124 16.5t24 79.5v758q0 63 -24 79.5t-124 16.5v52l227 -6l252 6v-52q-123 0 -153.5 -14t-30.5 -88v-760q0 -59 13.5 -73.5t68.5 -14.5h129q82 0 141.5 22.5t91 50.5t52 82t26.5 90t13 101h51l-39 -397h-842z" />
<glyph unicode="m" horiz-adv-x="1529" d="M96 1001v52h248q35 0 47 -5.5t23 -31.5l352 -862l350 860q12 29 22.5 34t47.5 5h248v-52q-100 0 -124 -16t-24 -80v-758q0 -63 23.5 -79.5t124.5 -16.5v-51q-203 6 -213 6l-213 -6v51q100 0 123.5 16.5t23.5 79.5v844l-2 2l-389 -956q-16 -37 -39 -37t-39 37l-383 942 l-2 -2v-770q0 -156 148 -156v-51q-76 6 -177 6l-176 -6v51q147 0 148 156v698q0 63 -24 79.5t-124 16.5z" />
<glyph unicode="n" horiz-adv-x="1255" d="M88 0v51q147 0 148 156v780q-41 14 -148 14v52h246q23 0 31 -1t14 -6.5t16 -19.5l568 -788v608q0 156 -148 155v52q78 -6 176 -6l176 6v-52q-147 0 -147 -155v-793q0 -33 -4 -43t-25 -10q-18 0 -35 23l-643 892l-20 25v-733q0 -156 147 -156v-51q-76 6 -176 6z" />
<glyph unicode="o" horiz-adv-x="1302" d="M104 522q0 229 160 394t387.5 165t387 -164.5t159.5 -394.5q0 -231 -160.5 -391t-386 -160t-386.5 160t-161 391zM281 545q0 -143 36.5 -250t95 -163t119 -81.5t120 -25.5t119.5 25.5t118.5 81.5t95.5 162.5t37 250.5q0 135 -37 235.5t-97.5 151.5t-118.5 74.5t-118 23.5 q-57 0 -116.5 -23.5t-119 -73.5t-97 -151.5t-37.5 -236.5z" />
<glyph unicode="p" horiz-adv-x="1142" d="M92 0v51q100 0 124 16.5t24 79.5v758q0 63 -23.5 79.5t-124.5 16.5v52h555q170 0 280.5 -87t110.5 -202q0 -117 -111.5 -201t-264.5 -84h-275v-332q0 -63 23.5 -79.5t124.5 -16.5v-51l-222 6zM381 526h223q90 0 147.5 23.5t79 68t26.5 73t5 73.5t-5 73.5t-26.5 72.5 t-79 67.5t-147.5 23.5h-141q-55 0 -68.5 -14t-13.5 -74v-387z" />
<glyph unicode="q" horiz-adv-x="1302" d="M104 522q0 229 160 394t387.5 165t387 -164.5t159.5 -394.5q0 -182 -99.5 -317t-230.5 -189q61 -135 152 -135q47 0 90 26.5t51 80.5q4 35 23 35q23 0 22 -39q0 -94 -50 -186.5t-150 -92.5q-41 0 -73 16.5t-51.5 38t-36 65.5t-24.5 75.5t-20 91.5q-61 -20 -150 -21 q-225 0 -386 160t-161 391zM274 522q0 -211 77 -323.5t177 -151.5q-14 23 -14 57q0 51 40 90t99 39q37 0 68 -14t54.5 -43t33.5 -46l29 -50q190 127 190 442q0 135 -36 238.5t-94 160t-120.5 83t-126 26.5t-126 -26.5t-121 -83t-94.5 -160t-36 -238.5zM559 104 q0 -12 3 -26.5t26.5 -34.5t62.5 -20q78 0 135 28q-33 137 -133 137q-41 0 -67.5 -24.5t-26.5 -59.5z" />
<glyph unicode="r" horiz-adv-x="1232" d="M92 0v51q100 0 124 16.5t24 79.5v758q0 63 -23.5 79.5t-124.5 16.5v52h492q182 0 306 -83t124 -194q0 -88 -78 -156.5t-193 -97.5q72 -27 115 -75t53.5 -77.5t22.5 -82.5q37 -186 55 -221q27 -49 72 -50q88 0 102 127q0 27 25 27q27 0 26 -31q0 -29 -11 -63.5t-51 -69.5 t-99 -35q-143 0 -211 68q-45 45 -55.5 83t-10.5 132q0 55 -2 79.5t-11 53.5t-30 51q-66 66 -168 66h-184v-357q0 -63 23.5 -79.5t123.5 -16.5v-51l-219 6zM381 549h180q94 0 154.5 22.5t84 63.5t31 70.5t7.5 70.5q0 63 -20.5 107.5t-49.5 67t-78 34.5t-85 14t-93 2 q-92 0 -107 -6q-25 -12 -24 -82v-364z" />
<glyph unicode="s" horiz-adv-x="937" d="M104 20v277q0 23 1 31t7.5 14t18.5 6q23 0 25 -18q6 -154 100 -228q98 -80 252 -79q100 0 160.5 64.5t60.5 148.5q0 100 -65 153q-33 31 -61 41t-118 33q-154 35 -200.5 52t-89.5 60q-90 90 -91 207q0 123 92.5 211t229.5 88q154 0 256 -100q29 43 39 53q23 33 29 40 t16 7q20 0 20 -49v-278q0 -23 -1 -31t-7 -13t-18 -5q-20 0 -25 20q-2 4 -2 6q-4 31 -10 58.5t-26.5 76.5t-50.5 83t-87 60.5t-131 26.5q-98 0 -158.5 -59t-60.5 -135q0 -53 32.5 -103.5t102.5 -79.5q4 -2 127 -30q141 -33 185 -51.5t98 -73.5q80 -84 80 -213 q0 -127 -91.5 -223.5t-234.5 -96.5q-186 0 -299 101q-29 -43 -39 -54q-23 -33 -29 -40t-16 -7q-21 0 -21 49z" />
<glyph unicode="t" horiz-adv-x="1210" d="M74 694l28 346h1006l29 -346h-52q-14 193 -65 244t-219 51q-88 0 -104.5 -11t-16.5 -77v-745q0 -66 26.5 -85.5t139.5 -19.5h43v-51q-80 6 -283 6t-282 -6v51h43q113 0 139 19.5t26 85.5v745q0 66 -16 77t-104 11q-172 0 -222.5 -51t-64.5 -244h-51z" />
<glyph unicode="u" horiz-adv-x="1255" d="M88 1001v52l221 -6l221 6v-52q-100 0 -123.5 -16t-23.5 -80v-551q0 -86 22.5 -151.5t54.5 -98t72.5 -53t68.5 -24.5t52 -4q119 0 217.5 89t98.5 253v481q0 156 -148 155v52q86 -6 174 -6q94 0 172 6v-52q-143 0 -147 -127v-544q-2 -127 -104.5 -243t-266.5 -116 t-279.5 100.5t-129.5 231.5q-4 27 -4 154v444q0 68 -23 84t-125 16z" />
<glyph unicode="v" horiz-adv-x="1255" d="M49 1001v52q82 -6 193 -6l215 6v-52q-104 0 -105 -55q0 -12 17 -49l307 -737l291 692q16 37 16 61q0 80 -86 88v52q82 -6 168 -6q78 0 141 6v-52q-123 -8 -178 -135l-356 -848q-10 -25 -17.5 -33t-27.5 -8q-25 0 -41 35q-2 4 -2 6l-381 902q-23 53 -47.5 67t-106.5 14z " />
<glyph unicode="w" horiz-adv-x="1712" d="M47 1001v52q84 -6 184 -6l215 6v-52q-113 0 -112 -59q0 -6 2 -13t5 -15.5t3 -10.5l252 -713l223 629l8 27q-29 94 -45 117q-14 25 -37.5 31.5t-82.5 6.5v52q84 -6 184 -6l215 6v-52q-111 0 -111 -59q0 -16 11 -43l251 -709l234 660q10 31 10 51q0 35 -24.5 66.5 t-83.5 33.5v52l178 -6q76 0 139 6v-52q-115 -6 -164 -147l-297 -836q-8 -25 -15 -33t-25.5 -8t-27 10.5t-16.5 35.5l-264 745l-266 -752q-23 -37 -41 -39q-27 0 -41 39l-326 916q-16 45 -41.5 57t-93.5 12z" />
<glyph unicode="x" horiz-adv-x="1255" d="M59 0v51q92 2 150.5 41t112.5 111l235 317l-283 389q-45 61 -75.5 76.5t-116.5 15.5v52q92 -6 197 -6l219 6v-52q-68 -4 -68 -57q0 -18 19 -43l194 -264l162 217q31 35 31 76q0 63 -62 71v52l189 -6q90 0 165 6v-52q-145 -4 -243 -127l-209 -280l195 -271 q161 -222 180 -239q39 -33 145 -33v-51q-94 6 -195 6l-221 -6v51q27 2 43.5 13.5t20.5 21.5t4 20q0 18 -14 37l-244 334l-191 -252q-49 -68 -49 -102q0 -66 64 -72v-51q-86 6 -189 6q-90 0 -166 -6z" />
<glyph unicode="y" horiz-adv-x="1255" d="M39 1001v52q92 -6 199 -6l221 6v-52q-84 0 -84 -40q0 -20 24 -56l283 -416l252 373q31 49 31 78q0 55 -60 61v52q82 -6 168 -6q78 0 144 6v-52q-131 -6 -222 -143l-297 -438v-266q0 -70 22.5 -86.5t125.5 -16.5v-51l-219 6l-217 -6v51q100 0 123.5 16.5t23.5 79.5v275 l-350 514q-29 41 -59.5 53t-108.5 12z" />
<glyph unicode="z" horiz-adv-x="1028" d="M104 31q0 16 15 37l633 933h-252q-160 0 -236 -65.5t-84 -228.5h-51l16 346h725q33 0 43.5 -4.5t10.5 -24.5q0 -14 -15 -35l-630 -932h266q104 0 170.5 22.5t100.5 75t46 107.5t19 150h51l-25 -412h-749q-35 0 -44.5 4t-9.5 27z" />
<glyph unicode="{" horiz-adv-x="1024" d="M147 512q0 23 29 23q129 8 213 92q39 41 46 86t7 196v375q2 109 118 180.5t274 71.5q41 0 40 -23q0 -18 -18 -22q-66 -4 -115 -21.5t-67.5 -32t-44.5 -40.5q-35 -37 -42 -80t-7 -164v-369q0 -203 -242 -272q207 -59 237 -211q4 -20 5 -186v-308q0 -76 6 -98 q16 -66 80.5 -118t175.5 -58q10 -2 14 -2t9 -2t7 -6t2 -12q0 -23 -40 -23q-174 0 -285 78q-72 51 -89.5 104.5t-17.5 159.5v406q0 72 -27.5 124t-71.5 77.5t-83 37.5t-80 14q-10 2 -14 2.5t-9 2.5t-7.5 6t-2.5 12z" />
<glyph unicode="|" horiz-adv-x="569" d="M244 -444v1912q0 68 41 68t41 -68v-1912q0 -68 -41 -68t-41 68z" />
<glyph unicode="}" horiz-adv-x="1024" d="M147 1513q0 23 41 23q170 0 285 -78q72 -51 89.5 -104.5t17.5 -159.5v-406q0 -72 27.5 -124t71.5 -77.5t83 -37.5t80 -14q10 -2 14 -2.5t9 -2.5t7 -6t2 -12q0 -23 -28 -23q-129 -8 -213 -92q-39 -41 -46 -86t-7 -196v-375q-2 -109 -118 -180.5t-274 -71.5q-41 0 -41 23 q0 18 19 22q66 4 115 21.5t67.5 32t44.5 40.5q35 37 42 80t7 164v369q0 203 242 272q-207 59 -238 211q-4 20 -4 186v308q0 76 -6 98q-16 66 -80.5 118t-175.5 58q-10 2 -14 2t-9 2t-7.5 6t-2.5 12z" />
<glyph unicode="~" horiz-adv-x="1138" d="M0 430l111 90q41 35 116 72q82 37 150 37q86 0 205 -70q133 -76 213 -76q139 0 313 146l29 -35l-111 -90q-41 -35 -117 -72q-82 -37 -149 -37q-86 0 -205 70q-133 76 -213 76q-139 0 -313 -146z" />
<glyph unicode="&#xa1;" horiz-adv-x="653" d="M217 -338l80 934q2 45 29 45q12 0 18 -6t7 -14.5l3 -26.5l78 -909l2 -23q0 -47 -32.5 -75.5t-75.5 -28.5t-76 28.5t-33 75.5zM217 915.5q0 45.5 32 77t77 31.5t76.5 -31.5t31.5 -77t-31.5 -77t-76.5 -31.5t-77 31.5t-32 77z" />
<glyph unicode="&#xa2;" horiz-adv-x="1210" d="M104 526.5q0 221.5 155 379t376 173.5v35q0 12 9 21.5t21.5 9.5t21.5 -9.5t9 -21.5v-33q162 -6 279 -129l80 105q20 25 30 24q20 0 21 -49v-346q0 -23 -1 -31t-7 -13t-19 -5q-18 0 -26 27q-27 178 -130.5 271t-226.5 95v-1007q135 2 241.5 94t117.5 245q2 10 2 14.5 t2 9.5t7 7t13 2q27 0 27 -33q0 -141 -113.5 -261.5t-296.5 -129.5v-32q0 -12 -9 -21.5t-21.5 -9.5t-21.5 9t-9 22v34q-221 16 -376 174t-155 379.5zM281 526q0 -135 35.5 -235.5t94 -152.5t113 -77.5t111.5 -33.5v999q-43 -8 -85 -22.5t-93.5 -51.5t-88 -88t-62 -139 t-25.5 -199z" />
<glyph unicode="&#xa3;" d="M139 190q0 106 95.5 170t224.5 64q111 0 219 -72q-6 102 -39 318h-375v61h365q-31 199 -31 322q0 150 120 248t283 98q147 0 253 -58.5t106 -166.5q0 -39 -26.5 -67t-67.5 -28q-39 0 -67 28t-28 66.5t28 66.5t67 28h4q-76 78 -269 78q-111 0 -185.5 -87.5t-74.5 -205.5 q0 -135 29 -322h328v-61h-320q41 -283 41 -422v-6q150 -127 217 -162q86 -45 172 -45q115 0 190 93t75 222h53q0 -176 -56.5 -299t-179.5 -123q-47 0 -94 13.5t-80 27t-84 51t-69.5 53t-77 68t-70.5 62.5q-23 -121 -153 -184.5t-302 -63.5q-92 0 -156.5 69.5t-64.5 165.5z M193 190q0 -74 49 -128t118 -54q129 0 224.5 77t95.5 194v24q-111 68 -221 68q-109 0 -187.5 -48.5t-78.5 -132.5z" />
<glyph unicode="&#xa4;" horiz-adv-x="1728" d="M356 6q-11 10 -10 23q0 22 31 53l158 160q-98 119 -99 270q0 154 99 272l-158 158q-31 31 -31 54q0 13 10 24q12 11 26 11q23 0 52 -30l158 -159q119 98 272.5 98t272.5 -98l155 157q29 29 53 30q14 0 25 -11q13 -13 13 -25q0 -8 -6 -17q-7 -11 -11 -16.5t-16 -17.5 l-156 -158q98 -119 98 -272.5t-98 -271.5l158 -158q29 -29 29 -52q0 -13 -11 -24t-24 -11q-22 0 -52 30l-157 157q-119 -98 -272.5 -98t-272.5 98l-158 -157q-29 -29 -52 -30q-14 0 -26 11zM518 512q0 -143 101.5 -244.5t245 -101.5t244.5 101.5t101 244.5t-101 244.5 t-244.5 101.5t-245 -101.5t-101.5 -244.5z" />
<glyph unicode="&#xa5;" d="M53 1335v64l269 -6q231 0 303 6v-64q-139 0 -140 -49q0 -14 19 -41l356 -543h78l326 496q23 35 22 59q0 78 -110 78v64l235 -6q104 0 201 6v-64q-182 -4 -266 -131l-332 -502h319v-61h-360l-53 -82v-176h413v-61h-413v-158q0 -63 25.5 -82t137.5 -19h47v-63q-74 6 -299 6 t-299 -6v63h50q111 0 136 18.5t25 78.5v162h-409v61h409v176l-53 82h-356v61h315l-368 564q-27 41 -66 55t-123 14h-39z" />
<glyph unicode="&#xa6;" horiz-adv-x="569" d="M244 322q0 31 41 30.5t41 -30.5v-766q0 -68 -41 -68t-41 68v766zM244 702v766q0 68 41 68t41 -68v-766q0 -31 -41 -31t-41 31z" />
<glyph unicode="&#xa7;" horiz-adv-x="1101" d="M82 627q0 80 52 141t136 98q-86 109 -86 236q0 150 107.5 256t259.5 106q141 0 236.5 -112.5t95.5 -268.5q0 -39 -28 -66.5t-66.5 -27.5t-66.5 27.5t-28 66.5t28 67t66 28q10 0 27 -4q-29 88 -100.5 142t-163.5 54q-102 0 -173 -79t-71 -189q0 -152 213 -250l205 -92 q129 -59 212 -152.5t83 -210.5q0 -78 -52.5 -141t-136.5 -100q86 -106 87 -234q0 -150 -108 -256t-259 -106q-141 0 -236.5 112.5t-95.5 268.5q0 39 27.5 66.5t66.5 27.5t67 -27.5t28 -66.5t-28 -67t-67 -28q-10 0 -26 4q29 -88 100.5 -142t163.5 -54q102 0 173 79t71 189 q0 152 -213 250l-205 92q-129 59 -212 152.5t-83 210.5zM242 627q0 -141 194 -232l205 -92q84 -41 150 -102q70 55 69.5 196.5t-194.5 231.5l-205 92q-82 37 -150 100q-69 -55 -69 -194z" />
<glyph unicode="&#xa8;" horiz-adv-x="1132" d="M287 1231q0 39 28.5 68.5t69.5 29.5t69.5 -29.5t28.5 -68.5t-28.5 -68.5t-69.5 -29.5t-69.5 29.5t-28.5 68.5zM647 1231q0 39 29 68.5t69.5 29.5t69.5 -29.5t29 -68.5t-29 -68.5t-69.5 -29.5t-69.5 29.5t-29 68.5z" />
<glyph unicode="&#xa9;" horiz-adv-x="1398" d="M0 700q0 289 205 494t495 205q289 0 494 -205t205 -494q0 -291 -205 -495.5t-494 -204.5q-291 0 -495.5 204.5t-204.5 495.5zM82 700q0 -256 181 -437t437 -181t436.5 181t180.5 437q0 254 -181.5 435.5t-435.5 181.5q-256 0 -437 -180.5t-181 -436.5zM311 700.5 q0 163.5 117 278.5t279 115q119 0 215 -97l55 84q8 12 18.5 12.5t10.5 -26.5v-256q0 -18 -2.5 -22.5t-14.5 -4.5q-16 0 -18 19q-18 121 -89 189.5t-161 68.5q-39 0 -81 -13.5t-95 -46t-88 -111.5t-35 -192q0 -106 32.5 -182t83 -111.5t96.5 -50t89 -14.5q98 0 174 65.5 t82 178.5q4 16 14 16q12 0 13 -18q0 -104 -84 -190.5t-213 -86.5q-162 0 -280 116t-118 279.5z" />
<glyph unicode="&#xaa;" horiz-adv-x="1054" d="M59 684v35q49 2 84 22.5t46.5 38t25.5 45.5l277 592q12 27 36 27q23 0 37 -31l297 -637q16 -37 39 -47t94 -10v-35l-166 4l-182 -4v35q90 0 90 41q0 4 -35 86l-38 80h-357q-57 -127 -57 -142q0 -61 78 -65v-35l-144 4q-51 0 -125 -4zM90 600q0 23 31 23h813q31 0 31 -23 q0 -20 -31 -20h-813q-31 0 -31 20zM326 961h321l-160 346z" />
<glyph unicode="&#xab;" horiz-adv-x="1251" d="M268 496q0 8 6 14q211 199 310 467q2 12 18 12h4q25 0 21 -24q-63 -250 -211 -469q145 -217 211 -471q4 -25 -21 -25h-4q-14 0 -18 14q-100 268 -310 465q-6 7 -6 17zM627 496q0 8 6 14q211 199 309 467q4 12 19 12h4q21 0 21 -18q0 -161 -212 -475q212 -316 212 -478 q0 -18 -21 -18h-4q-14 0 -19 14q-100 268 -309 465q-6 7 -6 17z" />
<glyph unicode="&#xac;" horiz-adv-x="1728" d="M147 710.5q0 16.5 12.5 29t28.5 12.5h1350q16 0 28.5 -12.5t12.5 -28.5v-398q0 -16 -12.5 -28.5t-28.5 -12.5t-28.5 12.5t-12.5 28.5v357h-1309q-16 0 -28.5 12t-12.5 28.5z" />
<glyph unicode="&#xad;" horiz-adv-x="774" d="M53 383v119h572v-119h-572z" />
<glyph unicode="&#xae;" horiz-adv-x="1398" d="M0 700q0 289 205 494t495 205q289 0 494 -205t205 -494q0 -291 -205 -495.5t-494 -204.5q-291 0 -495.5 204.5t-204.5 495.5zM82 700q0 -256 181 -437t437 -181t436.5 181t180.5 437q0 254 -181.5 435.5t-435.5 181.5q-256 0 -437 -180.5t-181 -436.5zM338 342v33h24 q59 0 73 9t14 42v571q0 33 -13.5 42.5t-73.5 9.5h-24v32h350q123 0 210 -58t87 -136q0 -57 -52 -105.5t-149 -70.5q66 -18 101 -58q25 -25 33 -49t18 -88q10 -61 14 -82.5t13.5 -49.5t22.5 -35t34 -7q68 0 76 96q6 16 14 17q14 0 14 -19q0 -37 -25.5 -78t-82.5 -41 q-86 -1 -139 45q-31 29 -38.5 59t-7.5 97q0 63 -6 89t-34 55q-43 39 -113 38h-135v-274q0 -33 13 -42t73 -9h24v-33q-39 2 -157.5 2t-157.5 -2zM543 725h131q199 0 198 162q0 47 -17 78.5t-37.5 48t-59.5 25t-61.5 9.5t-61.5 1q-55 0 -64 -2q-18 -2 -23 -10.5t-5 -30.5v-281 z" />
<glyph unicode="&#xaf;" horiz-adv-x="1132" d="M178 1198v64h774v-64h-774z" />
<glyph unicode="&#xb0;" horiz-adv-x="849" d="M125 1102q0 123 88 210t211 87q125 0 212 -87t87 -210q0 -125 -87 -212t-212 -87q-123 0 -211 87t-88 212zM207 1102q0 -90 63.5 -153.5t153.5 -63.5t153.5 63.5t63.5 153.5t-63.5 152.5t-153.5 62.5t-153.5 -63.5t-63.5 -151.5z" />
<glyph unicode="&#xb1;" horiz-adv-x="1728" d="M147 41q0 41 68 41h608v588h-608q-68 0 -68 41t68 41h608v602q0 68 41 67.5t41 -67.5v-602h606q68 0 68 -41t-68 -41h-606v-588h606q68 0 68 -41t-68 -41h-1296q-68 0 -68 41z" />
<glyph unicode="&#xb2;" horiz-adv-x="813" d="M98 627q0 31 15 43l319 280q150 133 150 256q0 84 -57.5 142.5t-155.5 58.5q-74 0 -132.5 -35t-80.5 -90h18q37 0 57.5 -18.5t20.5 -44.5q0 -35 -25.5 -50.5t-50.5 -15.5q-10 0 -23.5 2t-34 19.5t-20.5 48.5q0 86 82 153.5t207 67.5q141 0 235.5 -65.5t94.5 -172.5 q0 -53 -30 -101t-60.5 -76t-89.5 -73l-62 -43q-47 -33 -57 -41l-201 -151h285q131 0 141 8q18 14 37 111h37l-41 -213h-578z" />
<glyph unicode="&#xb3;" horiz-adv-x="813" d="M86 793q0 37 25.5 54t56.5 17q35 0 58.5 -18.5t23.5 -51t-28 -52.5q-23 -16 -53 -16q-6 0 -13 1q68 -94 239 -94q72 0 127.5 47t55.5 156q0 96 -50.5 150t-140.5 54h-74q-35 0 -34 15q0 12 34 14q80 4 112 11t62 38q63 63 64 158q0 72 -45 104.5t-109 32.5 q-59 0 -119.5 -18.5t-89.5 -57.5q90 0 91 -61q0 -27 -20.5 -44.5t-55.5 -17.5q-74 0 -74 64q0 74 79 120t195 46q115 0 199 -48t84 -120q0 -63 -51 -123.5t-164 -93.5q119 -18 188.5 -82t69.5 -141q0 -94 -94 -165t-236 -71q-129 0 -221 54.5t-92 138.5z" />
<glyph unicode="&#xb4;" horiz-adv-x="1132" d="M434 1075l250 297q43 51 74 51q29 0 51 -23.5t22 -49.5q0 -31 -36 -62l-326 -252z" />
<glyph unicode="&#xb5;" horiz-adv-x="1138" d="M66 -334q111 0 135 13.5t24 82.5v936q0 80 -25.5 99.5t-133.5 19.5v64l303 22v-676q0 -49 4 -77.5t19.5 -62.5t53 -49t99.5 -15q111 0 178.5 91t67.5 228v356q0 80 -26 99.5t-134 19.5v64l303 22v-721q0 -80 25.5 -99.5t134.5 -19.5v-63l-297 -23v177h-2 q-84 -176 -260 -177q-100 0 -166 27v-242q0 -70 24.5 -83t134.5 -13v-63l-231 6l-231 -6v63z" />
<glyph unicode="&#xb6;" horiz-adv-x="1251" d="M115 948q0 195 149.5 334t362.5 139h497q68 0 68 -41t-68 -41h-102v-1669q0 -68 -41 -67.5t-41 67.5v1669h-143v-1669q0 -68 -41 -67.5t-41 67.5v801q-102 4 -204.5 35t-193 86t-146.5 148t-56 208z" />
<glyph unicode="&#xb7;" horiz-adv-x="1728" d="M756 700q0 45 31.5 77t76.5 32t77 -32t32 -77t-32 -76.5t-77 -31.5t-76.5 31.5t-31.5 76.5z" />
<glyph unicode="&#xb8;" horiz-adv-x="1011" d="M203 -356h26h95q33 0 90 3t89 8t67.5 13t52 23.5t16.5 36.5q0 84 -186 84v198h106v-145q106 0 179 -33t73 -104q0 -33 -21.5 -57.5t-69.5 -39t-92 -23.5t-121 -12.5t-122 -4.5t-129 -1h-53v54z" />
<glyph unicode="&#xb9;" horiz-adv-x="831" d="M164 1327v39q182 0 276 78q25 0 30 -4t5 -27v-690q0 -25 5 -35t37 -17t99 -7h52v-37q-53 4 -248 4t-248 -4v37h51q70 0 101.5 7t37 17t5.5 35v639q-84 -35 -203 -35z" />
<glyph unicode="&#xba;" horiz-adv-x="1093" d="M88 1053q0 162 134 276.5t324.5 114.5t325 -115t134.5 -276q0 -160 -134.5 -272.5t-325 -112.5t-324.5 112.5t-134 272.5zM119 584q0 23 31 22h794q31 0 31 -22q0 -20 -31 -21h-794q-31 1 -31 21zM236 1069q0 -100 30.5 -175t79.5 -114t99.5 -57t101.5 -18t101 18 t99.5 57t80 114t30.5 175q0 94 -31.5 165t-81 106.5t-99.5 52t-99 16.5t-98.5 -16.5t-99.5 -51t-81.5 -105.5t-31.5 -167z" />
<glyph unicode="&#xbb;" horiz-adv-x="1251" d="M477 496q-147 221 -209 469q-1 2 0 4q0 6 3 12q5 8 16 8h4q14 0 20 -12q96 -268 307 -467q6 -6 7 -14q0 -10 -7 -17q-211 -199 -307 -465q-8 -14 -20 -14h-4q-10 0 -16 8q-4 6 -3 12q0 165 209 476zM836 496q-147 221 -209 469q-1 2 -1 4q0 6 4 12q5 8 15 8h4 q14 0 21 -12q96 -268 307 -467q6 -6 6 -14q0 -10 -6 -17q-211 -199 -307 -465q-6 -14 -21 -14h-4q-10 0 -15 8q-4 6 -4 12q1 165 210 476z" />
<glyph unicode="&#xbc;" horiz-adv-x="1822" d="M164 1327v39q182 0 276 78q25 0 30 -4t5 -27v-690q0 -25 5 -35t37 -17t99 -7h52v-37q-53 4 -248 4t-248 -4v37h51q70 0 101.5 7t37 17t5.5 35v639q-84 -35 -203 -35zM508 41q0 10 8 22l905 1319q12 16 35 17q16 0 28.5 -12.5t12.5 -28.5q0 -10 -8 -23l-905 -1317 q-12 -18 -35 -18q-16 0 -28.5 12.5t-12.5 28.5zM971 203v39l475 573q16 16 31 16q18 0 21 -5t3 -25v-559h158v-39h-158v-107q0 -37 17.5 -47t99.5 -10h33v-39q-53 4 -205 4q-154 0 -209 -4v39h35q80 0 98.5 10t18.5 47v107h-418zM1014 242h383v463z" />
<glyph unicode="&#xbd;" horiz-adv-x="1822" d="M164 1327v39q182 0 276 78q25 0 30 -4t5 -27v-690q0 -25 5 -35t37 -17t99 -7h52v-37q-53 4 -248 4t-248 -4v37h51q70 0 101.5 7t37 17t5.5 35v639q-84 -35 -203 -35zM418 41q0 12 6 22l907 1319q10 16 33 17q16 0 28.5 -12.5t12.5 -28.5q0 -14 -6 -23l-907 -1317 q-8 -18 -33 -18q-16 0 -28.5 12.5t-12.5 28.5zM1040 0q0 31 15 43l319 281q150 133 150 256q0 84 -57.5 142t-155.5 58q-74 0 -132.5 -34.5t-80.5 -90.5h18q37 0 57.5 -18.5t20.5 -44.5q0 -33 -25.5 -49.5t-50.5 -16.5q-10 0 -23.5 2t-34 19.5t-20.5 48.5q0 88 82 155.5 t207 67.5q141 0 235.5 -66.5t94.5 -172.5q0 -53 -28.5 -101.5t-59.5 -75t-92 -73.5l-59 -41l-60 -43l-201 -152h285q131 0 141 8q18 14 37 111h37l-41 -213h-578z" />
<glyph unicode="&#xbe;" horiz-adv-x="1822" d="M172 793q0 37 25.5 54t56.5 17q35 0 58.5 -18.5t23.5 -51t-28 -52.5q-23 -16 -55 -16q-7 0 -13 1q70 -94 241 -94q72 0 126.5 47t54.5 156q0 96 -49.5 150t-139.5 54h-74q-35 0 -34 15q0 12 34 14q78 4 111 11t63 38q61 63 62 158q0 72 -45 104.5t-109 32.5 q-152 0 -207 -76q90 0 91 -61q0 -27 -21.5 -44.5t-54.5 -17.5t-54.5 16.5t-21.5 47.5q0 72 80 119t194.5 47t199.5 -48t85 -120q0 -63 -52 -123.5t-165 -93.5q119 -18 188.5 -82t69.5 -141q0 -94 -93 -165t-235 -71q-129 0 -221 54.5t-92 138.5zM508 41q0 11 8 23l905 1318 q12 16 35 17q16 0 28.5 -12.5t12.5 -28.5q0 -10 -8 -23l-905 -1317q-12 -18 -35 -18q-16 0 -28.5 12.5t-12.5 28.5zM971 203v39l475 573q16 17 31 17q18 0 21 -5.5t3 -25.5v-559h158v-39h-158v-107q0 -37 17.5 -47t99.5 -10h33v-39q-53 4 -205 4q-154 0 -209 -4v39h35 q80 0 98.5 10t18.5 47v107h-418zM1014 242h383v463z" />
<glyph unicode="&#xbf;" horiz-adv-x="1073" d="M147 -143q0 129 103 211q231 186 231 491v33q0 23 1 31t6.5 13t17.5 5q25 0 26 -25v-49q0 -326 -155 -524q-23 -31 -32 -47t-18.5 -56t-9.5 -98q0 -39 1 -60.5t11.5 -56t30 -53t58.5 -33t94 -14.5q23 0 51.5 3t88 14.5t112.5 43t82 78.5q-9 -1 -18 -1q-41 0 -64 25 q-29 30 -29 69q0 41 25.5 67.5t68.5 26.5q39 0 67 -24.5t28 -73.5q0 -123 -120 -198t-298 -75q-104 0 -180 26.5t-112 72t-51.5 88.5t-15.5 90zM397 915.5q0 45.5 32 77t77 31.5t76.5 -31.5t31.5 -77t-31.5 -77t-76.5 -31.5t-77 31.5t-32 77z" />
<glyph unicode="&#xc0;" d="M98 0v63q63 0 109.5 14.5t71 41t34 43t19.5 43.5l452 1222q8 23 16.5 31t30.5 8q25 0 32 -7t20 -38l475 -1282q16 -45 47 -60.5t125 -15.5h37v-63l-269 6q-221 0 -294 -6v63q168 0 167 60q0 10 -10 37l-117 313h-544l-99 -266q-10 -25 -10 -41q0 -41 39 -72t113 -31v-63 l-238 6q-78 0 -207 -6zM522 537h500l-250 675zM541 1774q-1 8 -2 15q0 25 17 45q22 26 56 26q29 0 70 -39l299 -248l-29 -45l-364 190q-43 29 -47 56z" />
<glyph unicode="&#xc1;" d="M98 0v63q63 0 109.5 14.5t71 41t34 43t19.5 43.5l452 1222q8 23 16.5 31t30.5 8q25 0 32 -7t20 -38l475 -1282q16 -45 47 -60.5t125 -15.5h37v-63l-269 6q-221 0 -294 -6v63q168 0 167 60q0 10 -10 37l-117 313h-544l-99 -266q-10 -25 -10 -41q0 -41 39 -72t113 -31v-63 l-238 6q-78 0 -207 -6zM522 537h500l-250 675zM688 1573l299 248q41 39 70 39q35 0 56 -27q17 -21 17 -45q0 -7 -2 -14q-6 -27 -47 -56l-364 -190z" />
<glyph unicode="&#xc2;" d="M98 0v63q63 0 109.5 14.5t71 41t34 43t19.5 43.5l452 1222q8 23 16.5 31t30.5 8q25 0 32 -7t20 -38l475 -1282q16 -45 47 -60.5t125 -15.5h37v-63l-269 6q-221 0 -294 -6v63q168 0 167 60q0 10 -10 37l-117 313h-544l-99 -266q-10 -25 -10 -41q0 -41 39 -72t113 -31v-63 l-238 6q-78 0 -207 -6zM522 537h500l-250 675zM524 1540l310 240l309 -240l-25 -33l-287 135l-286 -135z" />
<glyph unicode="&#xc3;" d="M98 0v63q63 0 109.5 14.5t71 41t34 43t19.5 43.5l452 1222q8 23 16.5 31t30.5 8q25 0 32 -7t20 -38l475 -1282q16 -45 47 -60.5t125 -15.5h37v-63l-269 6q-221 0 -294 -6v63q168 0 167 60q0 10 -10 37l-117 313h-544l-99 -266q-10 -25 -10 -41q0 -41 39 -72t113 -31v-63 l-238 6q-78 0 -207 -6zM475 1538q94 98 136 130t98 32q51 0 145 -55q76 -45 127 -46q90 0 176 101l35 -31q-94 -98 -136 -130t-98 -32q-51 0 -145 56q-76 45 -127 45q-90 0 -176 -101zM522 537h500l-250 675z" />
<glyph unicode="&#xc4;" d="M98 0v63q63 0 109.5 14.5t71 41t34 43t19.5 43.5l452 1222q8 23 16.5 31t30.5 8q25 0 32 -7t20 -38l475 -1282q16 -45 47 -60.5t125 -15.5h37v-63l-269 6q-221 0 -294 -6v63q168 0 167 60q0 10 -10 37l-117 313h-544l-99 -266q-10 -25 -10 -41q0 -41 39 -72t113 -31v-63 l-238 6q-78 0 -207 -6zM522 1606q0 41 30 69.5t68.5 28.5t68.5 -28.5t30 -69.5t-30 -70t-68.5 -29t-68.5 29t-30 70zM522 537h500l-250 675zM948 1606q0 41 30 69.5t68.5 28.5t68.5 -28.5t30 -69.5t-30 -70t-68.5 -29t-68.5 29t-30 70z" />
<glyph unicode="&#xc5;" d="M98 0v63q63 0 109.5 14.5t71 41t34 43t19.5 43.5l452 1222q8 23 16.5 31t30.5 8q25 0 32 -7t20 -38l475 -1282q16 -45 47 -60.5t125 -15.5h37v-63l-269 6q-221 0 -294 -6v63q168 0 167 60q0 10 -10 37l-117 313h-544l-99 -266q-10 -25 -10 -41q0 -41 39 -72t113 -31v-63 l-238 6q-78 0 -207 -6zM522 537h500l-250 675zM629 1649q0 72 58 125t149 53q82 0 142 -52.5t60 -129.5q0 -72 -58 -125.5t-149 -53.5q-82 0 -142 52.5t-60 130.5zM696 1646.5q0 -118.5 137.5 -118.5t137.5 118.5t-137.5 118.5t-137.5 -118.5z" />
<glyph unicode="&#xc6;" horiz-adv-x="1996" d="M98 0v63q184 0 236 138l432 1132q-25 2 -78 2h-96v64h1198l57 -461h-51q-14 115 -30.5 179.5t-56.5 119.5t-108.5 76.5t-179.5 21.5h-229q-70 0 -85 -14t-15 -68v-548h192q141 0 181 50t40 189h51v-543h-51q0 139 -40 189.5t-181 50.5h-192v-496q0 -53 15 -67.5t85 -14.5 h227q59 0 106.5 6.5t84.5 16.5t67.5 30.5t52 39t39 53.5t28.5 61.5t23.5 75.5t18.5 84l16 98h52l-86 -528h-1057v63q106 0 132 13.5t26 79.5v485h-353l-166 -436q-10 -29 -10 -39q0 -41 38 -70.5t112 -32.5v-63l-236 6zM594 705h328v532q0 25 -3.5 40t-25 33.5t-62.5 18.5z " />
<glyph unicode="&#xc7;" horiz-adv-x="1609" d="M147 700q0 309 221.5 526.5t526.5 217.5q227 0 403 -182l107 157q16 25 32.5 25t19.5 -9.5t3 -39.5v-486q0 -33 -4 -41t-29 -8q-14 0 -20 3t-8 9.5t-4 22.5q-35 227 -169 356t-306 129q-53 0 -114 -12t-144.5 -55t-147 -113t-110 -200t-46.5 -302q0 -164 42 -289.5 t104.5 -197.5t143.5 -118t147.5 -60.5t128.5 -14.5q184 0 328.5 125t156.5 336q2 10 2 14.5t2 9.5t7 7t14 2q27 0 26 -35q0 -186 -146.5 -346t-375.5 -174v-92q106 0 179 -33t73 -104q0 -33 -21.5 -57.5t-69.5 -39t-92 -23.5t-121 -12.5t-122 -4.5t-129 -1h-53v54h26h94 q33 0 90.5 3t89 8t67.5 13t52.5 23.5t16.5 36.5q0 84 -187 84v145q-287 25 -485.5 237.5t-198.5 505.5z" />
<glyph unicode="&#xc8;" horiz-adv-x="1519" d="M113 0v63h49q111 0 136.5 18.5t25.5 78.5v1073q0 59 -26 77.5t-136 18.5h-49v64h1200l57 -461h-51q-12 117 -33.5 186.5t-68 120.5t-122 70.5t-196.5 19.5h-293q-70 0 -85 -14.5t-15 -67.5v-491h201q145 0 188 49t43 190h51v-542h-51q0 141 -43 190t-188 49h-201v-547 q0 -53 15.5 -67.5t84.5 -14.5h309q109 0 184 20.5t121 51.5t77.5 95.5t47 127t33.5 170.5h52l-87 -528h-1230zM465 1774q-1 8 -1 15q0 25 16 45q22 26 57 26q29 0 69 -39l299 -248l-28 -45l-365 190q-41 29 -47 56z" />
<glyph unicode="&#xc9;" horiz-adv-x="1519" d="M113 0v63h49q111 0 136.5 18.5t25.5 78.5v1073q0 59 -26 77.5t-136 18.5h-49v64h1200l57 -461h-51q-12 117 -33.5 186.5t-68 120.5t-122 70.5t-196.5 19.5h-293q-70 0 -85 -14.5t-15 -67.5v-491h201q145 0 188 49t43 190h51v-542h-51q0 141 -43 190t-188 49h-201v-547 q0 -53 15.5 -67.5t84.5 -14.5h309q109 0 184 20.5t121 51.5t77.5 95.5t47 127t33.5 170.5h52l-87 -528h-1230zM612 1573l299 248q41 39 70 39q35 0 56 -27q17 -21 17 -45q0 -7 -1 -14q-4 -27 -47 -56l-365 -190z" />
<glyph unicode="&#xca;" horiz-adv-x="1519" d="M113 0v63h49q111 0 136.5 18.5t25.5 78.5v1073q0 59 -26 77.5t-136 18.5h-49v64h1200l57 -461h-51q-12 117 -33.5 186.5t-68 120.5t-122 70.5t-196.5 19.5h-293q-70 0 -85 -14.5t-15 -67.5v-491h201q145 0 188 49t43 190h51v-542h-51q0 141 -43 190t-188 49h-201v-547 q0 -53 15.5 -67.5t84.5 -14.5h309q109 0 184 20.5t121 51.5t77.5 95.5t47 127t33.5 170.5h52l-87 -528h-1230zM449 1540l309 240l309 -240l-25 -33l-286 135l-287 -135z" />
<glyph unicode="&#xcb;" horiz-adv-x="1519" d="M113 0v63h49q111 0 136.5 18.5t25.5 78.5v1073q0 59 -26 77.5t-136 18.5h-49v64h1200l57 -461h-51q-12 117 -33.5 186.5t-68 120.5t-122 70.5t-196.5 19.5h-293q-70 0 -85 -14.5t-15 -67.5v-491h201q145 0 188 49t43 190h51v-542h-51q0 141 -43 190t-188 49h-201v-547 q0 -53 15.5 -67.5t84.5 -14.5h309q109 0 184 20.5t121 51.5t77.5 95.5t47 127t33.5 170.5h52l-87 -528h-1230zM446 1606q0 41 29 69.5t70 28.5t69.5 -28.5t28.5 -69.5t-28.5 -70t-69.5 -29t-70 29t-29 70zM872 1606q0 41 29 69.5t70 28.5t69.5 -28.5t28.5 -69.5t-28.5 -70 t-69.5 -29t-70 29t-29 70z" />
<glyph unicode="&#xcc;" horiz-adv-x="831" d="M102 0v63h54q115 0 141.5 18.5t26.5 78.5v1079q0 59 -27 77.5t-141 18.5h-54v64q72 -6 314 -6q240 0 311 6v-64h-53q-115 0 -141.5 -18.5t-26.5 -77.5v-1079q0 -59 26.5 -78t141.5 -19h53v-63q-72 6 -313 6q-240 0 -312 -6zM121 1774q-1 8 -2 15q0 25 17 45q22 26 57 26 q29 0 69 -39l299 -248l-29 -45l-364 190q-41 29 -47 56z" />
<glyph unicode="&#xcd;" horiz-adv-x="831" d="M102 0v63h54q115 0 141.5 18.5t26.5 78.5v1079q0 59 -27 77.5t-141 18.5h-54v64q72 -6 314 -6q240 0 311 6v-64h-53q-115 0 -141.5 -18.5t-26.5 -77.5v-1079q0 -59 26.5 -78t141.5 -19h53v-63q-72 6 -313 6q-240 0 -312 -6zM268 1573l299 248q41 39 70 39q35 0 56 -27 q17 -21 17 -45q0 -7 -1 -14q-4 -27 -47 -56l-365 -190z" />
<glyph unicode="&#xce;" horiz-adv-x="831" d="M102 0v63h54q115 0 141.5 18.5t26.5 78.5v1079q0 59 -27 77.5t-141 18.5h-54v64q72 -6 314 -6q240 0 311 6v-64h-53q-115 0 -141.5 -18.5t-26.5 -77.5v-1079q0 -59 26.5 -78t141.5 -19h53v-63q-72 6 -313 6q-240 0 -312 -6zM104 1540l310 240l309 -240l-25 -33l-286 135 l-287 -135z" />
<glyph unicode="&#xcf;" horiz-adv-x="831" d="M102 0v63h54q115 0 141.5 18.5t26.5 78.5v1079q0 59 -27 77.5t-141 18.5h-54v64q72 -6 314 -6q240 0 311 6v-64h-53q-115 0 -141.5 -18.5t-26.5 -77.5v-1079q0 -59 26.5 -78t141.5 -19h53v-63q-72 6 -313 6q-240 0 -312 -6zM102 1606q0 41 29 69.5t70 28.5t69.5 -28.5 t28.5 -69.5t-28.5 -70t-69.5 -29t-70 29t-29 70zM528 1606q0 41 29 69.5t70 28.5t69.5 -28.5t28.5 -69.5t-28.5 -70t-69.5 -29t-70 29t-29 70z" />
<glyph unicode="&#xd0;" horiz-adv-x="1697" d="M117 0v63h49q111 0 136.5 18.5t25.5 78.5v510h-211v61h211v508q0 59 -26 77.5t-136 18.5h-49v64h774q272 0 464.5 -209t192.5 -502q0 -287 -192.5 -487.5t-464.5 -200.5h-774zM504 145q0 -53 15.5 -67.5t84.5 -14.5h232q231 0 374 160q133 154 133 465q0 305 -114 455 q-145 193 -393 192h-232q-70 0 -85 -14t-15 -68v-522h346v-61h-346v-525z" />
<glyph unicode="&#xd1;" d="M113 0v63q74 0 121 14.5t64 42t21.5 47t4.5 52.5v1061q0 33 -2 37q-6 18 -209 18v64h346q31 0 40 -4t25 -25l760 -1069v879q0 33 -4 52t-21.5 47t-64.5 42t-121 14v64l240 -6l239 6v-64q-74 0 -121 -14t-64 -42t-21.5 -47.5t-4.5 -51.5v-1123q0 -37 -4 -47t-24.5 -10 t-36.5 25l-895 1263v-1069q0 -33 4 -52.5t21.5 -47t64.5 -42t121 -14.5v-63l-240 6zM475 1538q94 98 136 130t98 32q51 0 145 -55q76 -45 127 -46q90 0 176 101l35 -31q-94 -98 -136 -130t-98 -32q-51 0 -145 56q-76 45 -127 45q-90 0 -176 -101z" />
<glyph unicode="&#xd2;" horiz-adv-x="1728" d="M147 694q0 311 210 530.5t507 219.5q293 0 504 -218t211 -532q0 -307 -210 -523t-507 -216q-293 0 -504 215t-211 524zM358 725q0 -186 47.5 -330.5t124 -225.5t161.5 -121t173 -40q84 0 168 39t162 118t126 224.5t48 335.5q0 176 -48 311t-125 209t-162 111t-171 37 q-84 0 -167 -36t-161.5 -109.5t-127 -209t-48.5 -313.5zM571 1774q-1 8 -1 15q0 25 17 45q22 26 56 26q29 0 70 -39l299 -248l-29 -45l-364 190q-42 29 -48 56z" />
<glyph unicode="&#xd3;" horiz-adv-x="1728" d="M147 694q0 311 210 530.5t507 219.5q293 0 504 -218t211 -532q0 -307 -210 -523t-507 -216q-293 0 -504 215t-211 524zM358 725q0 -186 47.5 -330.5t124 -225.5t161.5 -121t173 -40q84 0 168 39t162 118t126 224.5t48 335.5q0 176 -48 311t-125 209t-162 111t-171 37 q-84 0 -167 -36t-161.5 -109.5t-127 -209t-48.5 -313.5zM719 1573l299 248q41 39 69 39q35 0 57 -27q17 -21 17 -45q0 -7 -2 -14q-4 -27 -47 -56l-364 -190z" />
<glyph unicode="&#xd4;" horiz-adv-x="1728" d="M147 694q0 311 210 530.5t507 219.5q293 0 504 -218t211 -532q0 -307 -210 -523t-507 -216q-293 0 -504 215t-211 524zM358 725q0 -186 47.5 -330.5t124 -225.5t161.5 -121t173 -40q84 0 168 39t162 118t126 224.5t48 335.5q0 176 -48 311t-125 209t-162 111t-171 37 q-84 0 -167 -36t-161.5 -109.5t-127 -209t-48.5 -313.5zM555 1540l309 240l310 -240l-25 -33l-287 135l-287 -135z" />
<glyph unicode="&#xd5;" horiz-adv-x="1728" d="M147 694q0 311 210 530.5t507 219.5q293 0 504 -218t211 -532q0 -307 -210 -523t-507 -216q-293 0 -504 215t-211 524zM358 725q0 -186 47.5 -330.5t124 -225.5t161.5 -121t173 -40q84 0 168 39t162 118t126 224.5t48 335.5q0 176 -48 311t-125 209t-162 111t-171 37 q-84 0 -167 -36t-161.5 -109.5t-127 -209t-48.5 -313.5zM506 1538q94 98 136 130t97 32q51 0 146 -55q76 -45 127 -46q90 0 176 101l35 -31q-94 -98 -136.5 -130t-97.5 -32q-51 0 -145 56q-76 45 -127 45q-90 0 -176 -101z" />
<glyph unicode="&#xd6;" horiz-adv-x="1728" d="M147 694q0 311 210 530.5t507 219.5q293 0 504 -218t211 -532q0 -307 -210 -523t-507 -216q-293 0 -504 215t-211 524zM358 725q0 -186 47.5 -330.5t124 -225.5t161.5 -121t173 -40q84 0 168 39t162 118t126 224.5t48 335.5q0 176 -48 311t-125 209t-162 111t-171 37 q-84 0 -167 -36t-161.5 -109.5t-127 -209t-48.5 -313.5zM553 1606q0 41 28.5 69.5t69.5 28.5t70 -28.5t29 -69.5t-29 -70t-70 -29t-69.5 29t-28.5 70zM979 1606q0 41 28.5 69.5t69.5 28.5t70 -28.5t29 -69.5t-29 -70t-70 -29t-69.5 29t-28.5 70z" />
<glyph unicode="&#xd7;" horiz-adv-x="1728" d="M356 6q-11 10 -10 23q0 22 31 53l430 430l-430 430q-31 31 -31 54q0 13 10 24q12 11 26 11q23 0 52 -30l430 -430l428 428q29 29 53 30q14 0 25 -11q13 -13 13 -25q0 -8 -6 -17q-7 -11 -11 -16.5t-16 -17.5l-428 -430l430 -430q29 -29 29 -52q0 -13 -11 -24t-24 -11 q-22 0 -52 30l-430 430l-430 -430q-29 -29 -52 -30q-14 0 -26 11z" />
<glyph unicode="&#xd8;" horiz-adv-x="1728" d="M147 694q0 311 210 530.5t507 219.5q217 0 410 -135l147 204l43 -28l-151 -209q104 -84 185 -236.5t81 -345.5q0 -307 -210 -523t-507 -216q-219 0 -411 133l-146 -203l-43 29l150 207q-265 239 -265 573zM330 694q0 -322 137 -497l758 1046q-158 156 -363 156 q-45 0 -96 -9.5t-134 -50.5t-145.5 -110.5t-109.5 -209t-47 -325.5zM502 156q143 -156 362 -156q49 0 102.5 9t134.5 51t143.5 112t107.5 205t45 317q0 336 -140 508z" />
<glyph unicode="&#xd9;" d="M113 1335v64q72 -6 303 -6q229 0 301 6v-64h-49q-111 0 -136.5 -18.5t-25.5 -77.5v-776q0 -109 27.5 -193t66.5 -130t91 -75.5t93 -38t80 -8.5q166 0 290 124t124 331v711q0 31 -4 49t-21.5 46t-64.5 42t-121 14v64l244 -6l241 6v-64q-74 0 -121 -14t-64 -43t-21.5 -48.5 t-4.5 -51.5v-738q0 -172 -134 -328.5t-347 -156.5q-219 0 -377.5 149.5t-158.5 364.5v770q0 59 -26 77.5t-136 18.5h-49zM590 1774q-1 8 -2 15q0 25 17 45q22 26 57 26q29 0 69 -39l299 -248l-29 -45l-364 190q-43 29 -47 56z" />
<glyph unicode="&#xda;" d="M113 1335v64q72 -6 303 -6q229 0 301 6v-64h-49q-111 0 -136.5 -18.5t-25.5 -77.5v-776q0 -109 27.5 -193t66.5 -130t91 -75.5t93 -38t80 -8.5q166 0 290 124t124 331v711q0 31 -4 49t-21.5 46t-64.5 42t-121 14v64l244 -6l241 6v-64q-74 0 -121 -14t-64 -43t-21.5 -48.5 t-4.5 -51.5v-738q0 -172 -134 -328.5t-347 -156.5q-219 0 -377.5 149.5t-158.5 364.5v770q0 59 -26 77.5t-136 18.5h-49zM737 1573l299 248q41 39 70 39q35 0 56 -27q17 -21 17 -45q0 -7 -1 -14q-6 -27 -48 -56l-364 -190z" />
<glyph unicode="&#xdb;" d="M113 1335v64q72 -6 303 -6q229 0 301 6v-64h-49q-111 0 -136.5 -18.5t-25.5 -77.5v-776q0 -109 27.5 -193t66.5 -130t91 -75.5t93 -38t80 -8.5q166 0 290 124t124 331v711q0 31 -4 49t-21.5 46t-64.5 42t-121 14v64l244 -6l241 6v-64q-74 0 -121 -14t-64 -43t-21.5 -48.5 t-4.5 -51.5v-738q0 -172 -134 -328.5t-347 -156.5q-219 0 -377.5 149.5t-158.5 364.5v770q0 59 -26 77.5t-136 18.5h-49zM573 1540l310 240l309 -240l-25 -33l-286 135l-287 -135z" />
<glyph unicode="&#xdc;" d="M113 1335v64q72 -6 303 -6q229 0 301 6v-64h-49q-111 0 -136.5 -18.5t-25.5 -77.5v-776q0 -109 27.5 -193t66.5 -130t91 -75.5t93 -38t80 -8.5q166 0 290 124t124 331v711q0 31 -4 49t-21.5 46t-64.5 42t-121 14v64l244 -6l241 6v-64q-74 0 -121 -14t-64 -43t-21.5 -48.5 t-4.5 -51.5v-738q0 -172 -134 -328.5t-347 -156.5q-219 0 -377.5 149.5t-158.5 364.5v770q0 59 -26 77.5t-136 18.5h-49zM571 1606q0 41 30 69.5t69 28.5t68.5 -28.5t29.5 -69.5t-29.5 -70t-68.5 -29t-69 29t-30 70zM997 1606q0 41 30 69.5t69 28.5t68.5 -28.5t29.5 -69.5 t-29.5 -70t-68.5 -29t-69 29t-30 70z" />
<glyph unicode="&#xdd;" d="M53 1335v64l269 -6q231 0 303 6v-64q-139 0 -140 -49q0 -14 19 -41l395 -602l365 555q23 35 22 59q0 78 -110 78v64l235 -6q104 0 201 6v-64q-182 -4 -266 -131l-426 -645v-395q0 -63 25.5 -82t137.5 -19h47v-63q-74 6 -299 6t-299 -6v63h50q111 0 136 18.5t25 78.5v399 l-462 707q-27 41 -66 55t-123 14h-39zM688 1573l299 248q41 39 70 39q35 0 56 -27q17 -21 17 -45q0 -7 -2 -14q-6 -27 -47 -56l-364 -190z" />
<glyph unicode="&#xde;" horiz-adv-x="1519" d="M102 0v63h54q115 0 141.5 18.5t26.5 78.5v1079q0 59 -27 77.5t-141 18.5h-54v64q72 -6 314 -6q240 0 311 6v-64h-53q-115 0 -141.5 -18.5t-26.5 -77.5v-164h358q213 0 359.5 -112.5t146.5 -268.5q0 -154 -148.5 -262t-340.5 -108h-375v-164q0 -59 26.5 -78t141.5 -19h53 v-63q-72 6 -313 6q-240 0 -312 -6zM504 383h307q98 0 169 26.5t104.5 58.5t52 84t20.5 79.5t2 68.5q0 43 -2 71t-20.5 80t-52 84t-104.5 57.5t-169 25.5h-207q-70 0 -85 -14.5t-15 -67.5v-553z" />
<glyph unicode="&#xdf;" horiz-adv-x="1875" d="M104 20v277q0 23 1.5 31t7.5 14t18 6q23 0 25 -18q6 -154 100 -228q98 -80 252 -79q100 0 160.5 64.5t60.5 148.5q0 100 -65 153q-33 31 -60.5 41t-118.5 33q-154 35 -200.5 52t-89.5 60q-90 90 -91 207q0 123 92.5 211t229.5 88q154 0 256 -100q29 43 39 53q23 33 29 40 t16 7q20 0 20 -49v-278q0 -23 -1 -31t-7 -13t-18 -5q-20 0 -25 20q-2 4 -2 6q-4 31 -10 58.5t-26.5 76.5t-50.5 83t-87 60.5t-131 26.5q-98 0 -158.5 -59.5t-60.5 -134.5q0 -53 32.5 -103.5t102.5 -79.5q4 -2 127 -30q141 -33 185 -51.5t98 -73.5q80 -84 80 -213 q0 -127 -91.5 -223.5t-234.5 -96.5q-186 0 -299 101q-29 -43 -39 -54q-23 -33 -29 -40t-16 -7q-21 0 -21 49zM1014 20v277q0 23 1 31t7 14t18 6q23 0 25 -18q6 -154 100 -228q98 -80 252 -79q100 0 160.5 64.5t60.5 148.5q0 100 -65 153q-33 31 -60.5 41t-117.5 33 q-154 35 -201 52t-90 60q-90 90 -90 207q0 123 92 211t229 88q154 0 256 -100q29 43 39 53q23 33 29 40t16 7q20 0 21 -49v-278q0 -23 -1 -31t-7.5 -13t-18.5 -5q-20 0 -24 20q-3 4 -3 6q-4 31 -10 58.5t-26.5 76.5t-50 83t-87 60.5t-131.5 26.5q-98 0 -158.5 -59 t-60.5 -135q0 -53 33 -103.5t102 -79.5q4 -2 127 -30q141 -33 185.5 -51.5t97.5 -73.5q80 -84 80 -213q0 -127 -91 -223.5t-235 -96.5q-186 0 -299 101q-29 -43 -39 -54q-23 -33 -29 -40t-16 -7q-20 0 -20 49z" />
<glyph unicode="&#xe0;" horiz-adv-x="1255" d="M70 0v51q45 2 78.5 16.5t55 42t31 45t21.5 48.5l330 846q8 23 15 30.5t28 7.5q29 0 45 -45l352 -909q20 -53 47 -67.5t113 -14.5v-51q-147 6 -199 6l-217 -6v51q109 0 109 58q0 14 -43 122l-45 115h-424q-70 -182 -70 -203q0 -16 4 -32.5t26.5 -37t61.5 -22.5v-51l-170 6 q-81 0 -149 -6zM362 1520q0 27 23 50t51 23q31 0 74 -51l250 -297l-35 -39l-326 252q-37 31 -37 62zM387 397h383l-190 494z" />
<glyph unicode="&#xe1;" horiz-adv-x="1255" d="M70 0v51q45 2 78.5 16.5t55 42t31 45t21.5 48.5l330 846q8 23 15 30.5t28 7.5q29 0 45 -45l352 -909q20 -53 47 -67.5t113 -14.5v-51q-147 6 -199 6l-217 -6v51q109 0 109 58q0 14 -43 122l-45 115h-424q-70 -182 -70 -203q0 -16 4 -32.5t26.5 -37t61.5 -22.5v-51l-170 6 q-81 0 -149 -6zM387 397h383l-190 494zM496 1245l249 297q43 51 74 51q29 0 51.5 -23.5t22.5 -49.5q0 -31 -37 -62l-326 -252z" />
<glyph unicode="&#xe2;" horiz-adv-x="1255" d="M70 0v51q45 2 78.5 16.5t55 42t31 45t21.5 48.5l330 846q8 23 15 30.5t28 7.5q29 0 45 -45l352 -909q20 -53 47 -67.5t113 -14.5v-51q-147 6 -199 6l-217 -6v51q109 0 109 58q0 14 -43 122l-45 115h-424q-70 -182 -70 -203q0 -16 4 -32.5t26.5 -37t61.5 -22.5v-51l-170 6 q-81 0 -149 -6zM315 1249l312 332l311 -332l-27 -28l-284 221l-285 -221zM387 397h383l-190 494z" />
<glyph unicode="&#xe3;" horiz-adv-x="1255" d="M70 0v51q45 2 78.5 16.5t55 42t31 45t21.5 48.5l330 846q8 23 15 30.5t28 7.5q29 0 45 -45l352 -909q20 -53 47 -67.5t113 -14.5v-51q-147 6 -199 6l-217 -6v51q109 0 109 58q0 14 -43 122l-45 115h-424q-70 -182 -70 -203q0 -16 4 -32.5t26.5 -37t61.5 -22.5v-51l-170 6 q-81 0 -149 -6zM268 1335q94 98 136 130t98 32q51 0 145 -55q76 -45 127 -45q90 0 176 100l35 -31q-94 -98 -136 -129.5t-97 -31.5q-51 0 -146 55q-76 45 -127 45q-90 0 -176 -100zM387 397h383l-190 494z" />
<glyph unicode="&#xe4;" horiz-adv-x="1255" d="M70 0v51q45 2 78.5 16.5t55 42t31 45t21.5 48.5l330 846q8 23 15 30.5t28 7.5q29 0 45 -45l352 -909q20 -53 47 -67.5t113 -14.5v-51q-147 6 -199 6l-217 -6v51q109 0 109 58q0 14 -43 122l-45 115h-424q-70 -182 -70 -203q0 -16 4 -32.5t26.5 -37t61.5 -22.5v-51l-170 6 q-81 0 -149 -6zM348 1401q0 41 29 69.5t69.5 28.5t69.5 -28.5t29 -69.5t-29 -69.5t-69.5 -28.5t-69.5 28.5t-29 69.5zM387 397h383l-190 494zM709 1401q0 41 28.5 69.5t69.5 28.5t69.5 -28.5t28.5 -69.5t-28.5 -69.5t-69.5 -28.5t-69.5 28.5t-28.5 69.5z" />
<glyph unicode="&#xe5;" horiz-adv-x="1255" d="M70 0v51q45 2 78.5 16.5t55 42t31 45t21.5 48.5l330 846q8 23 15 30.5t28 7.5q29 0 45 -45l352 -909q20 -53 47 -67.5t113 -14.5v-51q-147 6 -199 6l-217 -6v51q109 0 109 58q0 14 -43 122l-45 115h-424q-70 -182 -70 -203q0 -16 4 -32.5t26.5 -37t61.5 -22.5v-51l-170 6 q-81 0 -149 -6zM387 397h383l-190 494zM424 1436q0 72 58.5 125t148.5 53q82 0 142.5 -52.5t60.5 -129.5q0 -72 -58.5 -125.5t-148.5 -53.5q-82 0 -142.5 52.5t-60.5 130.5zM492 1433.5q0 -118.5 137 -118.5t137 118.5t-137 118.5t-137 -118.5z" />
<glyph unicode="&#xe6;" horiz-adv-x="1507" d="M70 0v51q127 2 184 142l324 806q-23 2 -66 2h-55v52h907l39 -346h-51q-18 172 -71.5 233t-209.5 61h-156q-55 0 -68 -14t-13 -74v-381h131q109 0 139.5 36t30.5 143h51v-408h-51q0 106 -32 142t-138 36h-131v-342q0 -59 13 -73.5t68 -14.5h158q174 0 235.5 72t88.5 274 h51l-59 -397h-803v51q76 0 93 15.5t17 76.5v338h-270l-111 -278q-16 -37 -16 -62q0 -84 90 -90v-51q-92 6 -168 6q-83 0 -151 -6zM446 532h250v363q0 92 -65 98z" />
<glyph unicode="&#xe7;" horiz-adv-x="1210" d="M104 526q0 231 170 393t404 162q174 0 297 -129l80 105q20 25 30 24q20 0 21 -49v-346q0 -23 -1 -31t-7 -13t-19 -5q-18 0 -26 27q-27 182 -132.5 274t-230.5 92q-37 0 -79 -8t-104.5 -39t-109.5 -82t-81.5 -148.5t-34.5 -226.5q0 -127 33.5 -224t80.5 -148.5t108.5 -83 t105.5 -39.5t83 -8q137 0 244.5 92t118.5 247q2 10 2 14.5t2 9.5t7 7t13 2q27 0 27 -33q0 -135 -107.5 -254.5t-279.5 -134.5v-108q106 0 179 -33t73 -104q0 -33 -21.5 -57.5t-70 -39t-92.5 -23.5t-120.5 -12.5t-121.5 -4.5t-129 -1h-54v54h27h94q33 0 90.5 3t89 8t67.5 13 t52.5 23.5t16.5 36.5q0 84 -187 84v163q-213 23 -360.5 180.5t-147.5 370.5z" />
<glyph unicode="&#xe8;" horiz-adv-x="1142" d="M88 0v51q100 0 124 16.5t24 79.5v752q0 63 -24 79.5t-124 16.5v52h911l39 -347h-51q-18 172 -78.5 233.5t-234.5 61.5h-209q-55 0 -68.5 -14t-13.5 -74v-338h143q111 0 143.5 36t32.5 143h52v-408h-52q0 106 -32.5 142t-143.5 36h-143v-379q0 -59 13.5 -73.5t68.5 -14.5 h221q98 0 159.5 17.5t99.5 63.5t55.5 104.5t31.5 160.5h51l-59 -397h-936zM307 1520q0 27 22.5 50t51.5 23q31 0 74 -51l250 -297l-35 -39l-326 252q-37 31 -37 62z" />
<glyph unicode="&#xe9;" horiz-adv-x="1142" d="M88 0v51q100 0 124 16.5t24 79.5v752q0 63 -24 79.5t-124 16.5v52h911l39 -347h-51q-18 172 -78.5 233.5t-234.5 61.5h-209q-55 0 -68.5 -14t-13.5 -74v-338h143q111 0 143.5 36t32.5 143h52v-408h-52q0 106 -32.5 142t-143.5 36h-143v-379q0 -59 13.5 -73.5t68.5 -14.5 h221q98 0 159.5 17.5t99.5 63.5t55.5 104.5t31.5 160.5h51l-59 -397h-936zM440 1245l250 297q43 51 74 51q29 0 51.5 -23.5t22.5 -49.5q0 -31 -37 -62l-326 -252z" />
<glyph unicode="&#xea;" horiz-adv-x="1142" d="M88 0v51q100 0 124 16.5t24 79.5v752q0 63 -24 79.5t-124 16.5v52h911l39 -347h-51q-18 172 -78.5 233.5t-234.5 61.5h-209q-55 0 -68.5 -14t-13.5 -74v-338h143q111 0 143.5 36t32.5 143h52v-408h-52q0 106 -32.5 142t-143.5 36h-143v-379q0 -59 13.5 -73.5t68.5 -14.5 h221q98 0 159.5 17.5t99.5 63.5t55.5 104.5t31.5 160.5h51l-59 -397h-936zM260 1249l311 332l312 -332l-27 -28l-285 221l-284 -221z" />
<glyph unicode="&#xeb;" horiz-adv-x="1142" d="M88 0v51q100 0 124 16.5t24 79.5v752q0 63 -24 79.5t-124 16.5v52h911l39 -347h-51q-18 172 -78.5 233.5t-234.5 61.5h-209q-55 0 -68.5 -14t-13.5 -74v-338h143q111 0 143.5 36t32.5 143h52v-408h-52q0 106 -32.5 142t-143.5 36h-143v-379q0 -59 13.5 -73.5t68.5 -14.5 h221q98 0 159.5 17.5t99.5 63.5t55.5 104.5t31.5 160.5h51l-59 -397h-936zM293 1401q0 41 29.5 69.5t68.5 28.5t68.5 -28.5t29.5 -69.5t-29.5 -69.5t-68.5 -28.5t-68.5 28.5t-29.5 69.5zM653 1401q0 41 30 69.5t69 28.5t68.5 -28.5t29.5 -69.5t-29.5 -69.5t-68.5 -28.5 t-69 28.5t-30 69.5z" />
<glyph unicode="&#xec;" horiz-adv-x="618" d="M45 1520q0 27 22.5 50t51.5 23q31 0 74 -51l249 -297l-34 -39l-326 252q-37 31 -37 62zM80 0v51q109 0 132.5 15.5t23.5 83.5v753q0 68 -24 83t-132 15v52l229 -6l230 6v-52q-109 0 -132.5 -15t-23.5 -83v-753q0 -68 23.5 -83.5t132.5 -15.5v-51l-230 6z" />
<glyph unicode="&#xed;" horiz-adv-x="618" d="M80 0v51q109 0 132.5 15.5t23.5 83.5v753q0 68 -24 83t-132 15v52l229 -6l230 6v-52q-109 0 -132.5 -15t-23.5 -83v-753q0 -68 23.5 -83.5t132.5 -15.5v-51l-230 6zM178 1245l250 297q43 51 74 51q29 0 51 -23.5t22 -49.5q0 -31 -36 -62l-326 -252z" />
<glyph unicode="&#xee;" horiz-adv-x="618" d="M-2 1249l311 332l312 -332l-27 -28l-285 221l-284 -221zM80 0v51q109 0 132.5 15.5t23.5 83.5v753q0 68 -24 83t-132 15v52l229 -6l230 6v-52q-109 0 -132.5 -15t-23.5 -83v-753q0 -68 23.5 -83.5t132.5 -15.5v-51l-230 6z" />
<glyph unicode="&#xef;" horiz-adv-x="618" d="M31 1401q0 41 29.5 69.5t68.5 28.5t68.5 -28.5t29.5 -69.5t-29.5 -69.5t-68.5 -28.5t-68.5 28.5t-29.5 69.5zM80 0v51q109 0 132.5 15.5t23.5 83.5v753q0 68 -24 83t-132 15v52l229 -6l230 6v-52q-109 0 -132.5 -15t-23.5 -83v-753q0 -68 23.5 -83.5t132.5 -15.5v-51 l-230 6zM391 1401q0 41 30 69.5t68.5 28.5t68.5 -28.5t30 -69.5t-30 -69.5t-68.5 -28.5t-68.5 28.5t-30 69.5z" />
<glyph unicode="&#xf0;" horiz-adv-x="1302" d="M92 0v51q100 0 124 16.5t24 79.5v353h-148v53h148v352q0 63 -23.5 79.5t-124.5 16.5v52h576q217 0 361.5 -159t144.5 -376q0 -213 -145.5 -365.5t-360.5 -152.5h-576zM381 139q0 -59 13.5 -73.5t68.5 -14.5h158q203 0 309 148q74 113 74 319q0 236 -91 350 q-104 133 -292 133h-158q-55 0 -68.5 -14t-13.5 -74v-360h258v-53h-258v-361z" />
<glyph unicode="&#xf1;" horiz-adv-x="1255" d="M88 0v51q147 0 148 156v780q-41 14 -148 14v52h246q23 0 31 -1t14 -6.5t16 -19.5l568 -788v608q0 156 -148 155v52q78 -6 176 -6l176 6v-52q-147 0 -147 -155v-793q0 -33 -4 -43t-25 -10q-18 0 -35 23l-643 892l-20 25v-733q0 -156 147 -156v-51q-76 6 -176 6zM268 1335 q94 98 136 130t98 32q51 0 145 -55q76 -45 127 -45q90 0 176 100l35 -31q-94 -98 -136 -129.5t-97 -31.5q-51 0 -146 55q-76 45 -127 45q-90 0 -176 -100z" />
<glyph unicode="&#xf2;" horiz-adv-x="1302" d="M104 522q0 229 160 394t387.5 165t387 -164.5t159.5 -394.5q0 -231 -160.5 -391t-386 -160t-386.5 160t-161 391zM281 545q0 -143 36.5 -250t95 -163t119 -81.5t120 -25.5t119.5 25.5t118.5 81.5t95.5 162.5t37 250.5q0 135 -37 235.5t-97.5 151.5t-118.5 74.5t-118 23.5 q-57 0 -116.5 -23.5t-119 -73.5t-97 -151.5t-37.5 -236.5zM385 1520q0 27 22.5 50t51.5 23q31 0 73 -51l250 -297l-34 -39l-326 252q-37 31 -37 62z" />
<glyph unicode="&#xf3;" horiz-adv-x="1302" d="M104 522q0 229 160 394t387.5 165t387 -164.5t159.5 -394.5q0 -231 -160.5 -391t-386 -160t-386.5 160t-161 391zM281 545q0 -143 36.5 -250t95 -163t119 -81.5t120 -25.5t119.5 25.5t118.5 81.5t95.5 162.5t37 250.5q0 135 -37 235.5t-97.5 151.5t-118.5 74.5t-118 23.5 q-57 0 -116.5 -23.5t-119 -73.5t-97 -151.5t-37.5 -236.5zM518 1245l250 297q43 51 74 51q29 0 51 -23.5t22 -49.5q0 -31 -36 -62l-326 -252z" />
<glyph unicode="&#xf4;" horiz-adv-x="1302" d="M104 522q0 229 160 394t387.5 165t387 -164.5t159.5 -394.5q0 -231 -160.5 -391t-386 -160t-386.5 160t-161 391zM281 545q0 -143 36.5 -250t95 -163t119 -81.5t120 -25.5t119.5 25.5t118.5 81.5t95.5 162.5t37 250.5q0 135 -37 235.5t-97.5 151.5t-118.5 74.5t-118 23.5 q-57 0 -116.5 -23.5t-119 -73.5t-97 -151.5t-37.5 -236.5zM338 1249l311 332l312 -332l-27 -28l-285 221l-284 -221z" />
<glyph unicode="&#xf5;" horiz-adv-x="1302" d="M104 522q0 229 160 394t387.5 165t387 -164.5t159.5 -394.5q0 -231 -160.5 -391t-386 -160t-386.5 160t-161 391zM281 545q0 -143 36.5 -250t95 -163t119 -81.5t120 -25.5t119.5 25.5t118.5 81.5t95.5 162.5t37 250.5q0 135 -37 235.5t-97.5 151.5t-118.5 74.5t-118 23.5 q-57 0 -116.5 -23.5t-119 -73.5t-97 -151.5t-37.5 -236.5zM291 1335q94 98 136 130t97 32q51 0 146 -55q76 -45 127 -45q90 0 176 100l35 -31q-94 -98 -136.5 -129.5t-97.5 -31.5q-51 0 -145 55q-76 45 -127 45q-90 0 -176 -100z" />
<glyph unicode="&#xf6;" horiz-adv-x="1302" d="M104 522q0 229 160 394t387.5 165t387 -164.5t159.5 -394.5q0 -231 -160.5 -391t-386 -160t-386.5 160t-161 391zM281 545q0 -143 36.5 -250t95 -163t119 -81.5t120 -25.5t119.5 25.5t118.5 81.5t95.5 162.5t37 250.5q0 135 -37 235.5t-97.5 151.5t-118.5 74.5t-118 23.5 q-57 0 -116.5 -23.5t-119 -73.5t-97 -151.5t-37.5 -236.5zM371 1401q0 41 29.5 69.5t68.5 28.5t68.5 -28.5t29.5 -69.5t-29.5 -69.5t-68.5 -28.5t-68.5 28.5t-29.5 69.5zM731 1401q0 41 30 69.5t68.5 28.5t68.5 -28.5t30 -69.5t-30 -69.5t-68.5 -28.5t-68.5 28.5t-30 69.5z " />
<glyph unicode="&#xf7;" horiz-adv-x="1728" d="M147 512q0 41 68 41h1296q68 0 68 -41t-70 -41h-1292q-70 0 -70 41zM756 190.5q0 45.5 31.5 77t76.5 31.5t77 -31.5t32 -77t-32 -77t-77 -31.5t-76.5 31.5t-31.5 77zM756 833.5q0 45.5 31.5 77t76.5 31.5t77 -31.5t32 -77t-32 -77t-77 -31.5t-76.5 31.5t-31.5 77z" />
<glyph unicode="&#xf8;" horiz-adv-x="1302" d="M104 522q0 229 160 394t387 165q156 0 291 -86l117 172l41 -28l-117 -174q92 -68 153.5 -187t61.5 -256q0 -231 -160.5 -391t-386.5 -160q-162 0 -291 84l-116 -170l-41 29l114 170q-213 178 -213 438zM252 522q0 -244 108 -375l543 795q-111 94 -252 94 q-201 0 -315 -166q-84 -123 -84 -348zM399 111q102 -94 252 -95q199 0 312 158q88 123 88 348q0 250 -111 381z" />
<glyph unicode="&#xf9;" horiz-adv-x="1255" d="M88 1001v52l221 -6l221 6v-52q-100 0 -123.5 -16t-23.5 -80v-551q0 -86 22.5 -151.5t54.5 -98t72.5 -53t68.5 -24.5t52 -4q119 0 217.5 89t98.5 253v481q0 156 -148 155v52q86 -6 174 -6q94 0 172 6v-52q-143 0 -147 -127v-544q-2 -127 -104.5 -243t-266.5 -116 t-279.5 100.5t-129.5 231.5q-4 27 -4 154v444q0 68 -23 84t-125 16zM401 1520q0 27 22.5 50t51.5 23q31 0 74 -51l250 -297l-35 -39l-326 252q-37 31 -37 62z" />
<glyph unicode="&#xfa;" horiz-adv-x="1255" d="M88 1001v52l221 -6l221 6v-52q-100 0 -123.5 -16t-23.5 -80v-551q0 -86 22.5 -151.5t54.5 -98t72.5 -53t68.5 -24.5t52 -4q119 0 217.5 89t98.5 253v481q0 156 -148 155v52q86 -6 174 -6q94 0 172 6v-52q-143 0 -147 -127v-544q-2 -127 -104.5 -243t-266.5 -116 t-279.5 100.5t-129.5 231.5q-4 27 -4 154v444q0 68 -23 84t-125 16zM535 1245l249 297q43 51 74 51q29 0 51.5 -23.5t22.5 -49.5q0 -31 -37 -62l-326 -252z" />
<glyph unicode="&#xfb;" horiz-adv-x="1255" d="M88 1001v52l221 -6l221 6v-52q-100 0 -123.5 -16t-23.5 -80v-551q0 -86 22.5 -151.5t54.5 -98t72.5 -53t68.5 -24.5t52 -4q119 0 217.5 89t98.5 253v481q0 156 -148 155v52q86 -6 174 -6q94 0 172 6v-52q-143 0 -147 -127v-544q-2 -127 -104.5 -243t-266.5 -116 t-279.5 100.5t-129.5 231.5q-4 27 -4 154v444q0 68 -23 84t-125 16zM354 1249l312 332l311 -332l-27 -28l-284 221l-285 -221z" />
<glyph unicode="&#xfc;" horiz-adv-x="1255" d="M88 1001v52l221 -6l221 6v-52q-100 0 -123.5 -16t-23.5 -80v-551q0 -86 22.5 -151.5t54.5 -98t72.5 -53t68.5 -24.5t52 -4q119 0 217.5 89t98.5 253v481q0 156 -148 155v52q86 -6 174 -6q94 0 172 6v-52q-143 0 -147 -127v-544q-2 -127 -104.5 -243t-266.5 -116 t-279.5 100.5t-129.5 231.5q-4 27 -4 154v444q0 68 -23 84t-125 16zM387 1401q0 41 29.5 69.5t68.5 28.5t69 -28.5t30 -69.5t-30 -69.5t-69 -28.5t-68.5 28.5t-29.5 69.5zM748 1401q0 41 29.5 69.5t68.5 28.5t68.5 -28.5t29.5 -69.5t-29.5 -69.5t-68.5 -28.5t-68.5 28.5 t-29.5 69.5z" />
<glyph unicode="&#xfd;" horiz-adv-x="1255" d="M39 1001v52q92 -6 199 -6l221 6v-52q-84 0 -84 -40q0 -20 24 -56l283 -416l252 373q31 49 31 78q0 55 -60 61v52q82 -6 168 -6q78 0 144 6v-52q-131 -6 -222 -143l-297 -438v-266q0 -70 22.5 -86.5t125.5 -16.5v-51l-219 6l-217 -6v51q100 0 123.5 16.5t23.5 79.5v275 l-350 514q-29 41 -59.5 53t-108.5 12zM496 1245l249 297q43 51 74 51q29 0 51.5 -23.5t22.5 -49.5q0 -31 -37 -62l-326 -252z" />
<glyph unicode="&#xfe;" horiz-adv-x="1142" d="M80 0v51q109 0 132.5 15.5t23.5 83.5v753q0 68 -24 83t-132 15v52l229 -6l230 6v-52q-109 0 -132.5 -15t-23.5 -83v-90h264q170 0 280.5 -87t110.5 -202q0 -117 -111.5 -200.5t-264.5 -83.5h-279v-90q0 -68 23.5 -83.5t132.5 -15.5v-51l-230 6zM381 289h223 q90 0 147.5 23.5t79 67.5t26.5 72.5t5 73.5t-5 74t-26.5 73t-79 67.5t-147.5 23.5h-141q-55 0 -68.5 -14.5t-13.5 -73.5v-387z" />
<glyph unicode="&#xff;" horiz-adv-x="1255" d="M39 1001v52q92 -6 199 -6l221 6v-52q-84 0 -84 -40q0 -20 24 -56l283 -416l252 373q31 49 31 78q0 55 -60 61v52q82 -6 168 -6q78 0 144 6v-52q-131 -6 -222 -143l-297 -438v-266q0 -70 22.5 -86.5t125.5 -16.5v-51l-219 6l-217 -6v51q100 0 123.5 16.5t23.5 79.5v275 l-350 514q-29 41 -59.5 53t-108.5 12zM348 1401q0 41 29 69.5t69.5 28.5t69.5 -28.5t29 -69.5t-29 -69.5t-69.5 -28.5t-69.5 28.5t-29 69.5zM709 1401q0 41 28.5 69.5t69.5 28.5t69.5 -28.5t28.5 -69.5t-28.5 -69.5t-69.5 -28.5t-69.5 28.5t-28.5 69.5z" />
<glyph unicode="&#x152;" horiz-adv-x="2236" d="M176 694q0 313 212 531.5t501 218.5q59 0 176 -27q88 -18 154 -18h811l57 -461h-51q-14 117 -32.5 183.5t-59.5 119.5t-112 73.5t-185 20.5h-258q-70 0 -85.5 -14t-15.5 -68v-495h240q154 0 200 48t46 191h51v-542h-51q0 141 -47.5 190t-198.5 49h-240v-549 q0 -53 15.5 -67.5t85.5 -14.5h262q88 0 151.5 11.5t108.5 41t74.5 61.5t50 93.5t33 113.5t26.5 144h51l-86 -528h-841q-66 0 -191 -29q-80 -16 -141 -16q-285 0 -498 214t-213 525zM381 725q0 -301 151.5 -513t364.5 -212q70 0 115 16.5t67.5 54.5t30.5 70.5t14 94.5 q8 74 8.5 465t-10.5 479q-12 113 -56 166t-171 53q-211 0 -362.5 -192.5t-151.5 -481.5z" />
<glyph unicode="&#x153;" horiz-adv-x="1687" d="M127 522.5q0 231.5 161 395t382 163.5q47 0 139 -16q70 -12 121 -12h614l39 -346h-51q-16 172 -72.5 233t-216.5 61h-176q-55 0 -68.5 -14t-13.5 -74v-342h168q113 0 148.5 36t35.5 143h52v-408h-52q0 106 -34.5 142t-149.5 36h-168v-381q0 -59 13.5 -73.5t68.5 -14.5 h182q178 0 238.5 73t89.5 273h51l-59 -397h-639q-53 0 -158 -18q-57 -10 -102 -11q-219 0 -381 160t-162 391.5zM297 545q0 -219 110.5 -374t268.5 -155q100 0 132 40t42 132q6 55 6 338q0 295 -8 359q-10 80 -44 115.5t-128 35.5q-156 0 -267.5 -141t-111.5 -350z" />
<glyph unicode="&#x178;" d="M53 1335v64l269 -6q231 0 303 6v-64q-139 0 -140 -49q0 -14 19 -41l395 -602l365 555q23 35 22 59q0 78 -110 78v64l235 -6q104 0 201 6v-64q-182 -4 -266 -131l-426 -645v-395q0 -63 25.5 -82t137.5 -19h47v-63q-74 6 -299 6t-299 -6v63h50q111 0 136 18.5t25 78.5v399 l-462 707q-27 41 -66 55t-123 14h-39zM522 1606q0 41 30 69.5t68.5 28.5t68.5 -28.5t30 -69.5t-30 -70t-68.5 -29t-68.5 29t-30 70zM948 1606q0 41 30 69.5t68.5 28.5t68.5 -28.5t30 -69.5t-30 -70t-68.5 -29t-68.5 29t-30 70z" />
<glyph unicode="&#x2c6;" horiz-adv-x="1132" d="M254 1079l311 332l312 -332l-27 -28l-285 221l-284 -221z" />
<glyph unicode="&#x2dc;" horiz-adv-x="1132" d="M207 1165q94 98 136 130t97 32q51 0 146 -55q76 -45 127 -45q90 0 176 100l35 -31q-94 -98 -136.5 -129.5t-97.5 -31.5q-51 0 -145 55q-76 45 -127 45q-90 0 -176 -100z" />
<glyph unicode="&#x2013;" horiz-adv-x="1132" d="M29 522v45h1073v-45h-1073z" />
<glyph unicode="&#x2014;" horiz-adv-x="2265" d="M57 522v45h2149v-45h-2149z" />
<glyph unicode="&#x2018;" horiz-adv-x="653" d="M186 1022q0 109 46.5 207t90.5 144t60 46q23 0 23 -22q0 -8 -11 -19q-164 -156 -164 -358q0 -31 2 -43q31 47 93 47q51 0 79.5 -33t28.5 -76t-28.5 -75.5t-79.5 -32.5q-68 0 -104 62.5t-36 152.5z" />
<glyph unicode="&#x2019;" horiz-adv-x="653" d="M217 1313q0 43 28.5 75.5t80.5 32.5q68 0 103.5 -62.5t35.5 -152.5q0 -109 -46 -207t-90 -144t-61 -46q-23 0 -22 22q0 8 10 19q164 156 164 358q0 31 -2 43q-31 -47 -92 -47q-51 0 -80 33t-29 76z" />
<glyph unicode="&#x201a;" horiz-adv-x="653" d="M203 104q0 43 28.5 76t79.5 33q68 0 104 -62.5t36 -152.5q0 -109 -46.5 -207t-90.5 -144t-60 -46q-23 0 -23 22q0 8 11 19q164 156 164 358q0 31 -3 43q-31 -47 -92 -47q-51 0 -79.5 32.5t-28.5 75.5z" />
<glyph unicode="&#x201c;" horiz-adv-x="1071" d="M186 1022q0 109 46.5 207t90.5 144t60 46q23 0 23 -22q0 -8 -11 -19q-164 -156 -164 -358q0 -31 2 -43q31 47 93 47q51 0 79.5 -33t28.5 -76t-28.5 -75.5t-79.5 -32.5q-68 0 -104 62.5t-36 152.5zM604 1022q0 109 46 207t90 144t61 46q23 0 22 -22q0 -8 -10 -19 q-164 -156 -164 -358q0 -31 2 -43q31 47 92 47q51 0 80 -33t29 -76t-28.5 -75.5t-80.5 -32.5q-68 0 -103.5 62.5t-35.5 152.5z" />
<glyph unicode="&#x201d;" horiz-adv-x="1071" d="M219 1313q0 43 28.5 75.5t80.5 32.5q68 0 103.5 -62.5t35.5 -152.5q0 -109 -46 -207t-90 -144t-61 -46q-23 0 -22 22q0 8 10 19q164 156 164 358q0 31 -2 43q-31 -47 -92 -47q-51 0 -80 33t-29 76zM637 1313q0 43 28.5 75.5t79.5 32.5q68 0 104 -62.5t36 -152.5 q0 -109 -46 -207t-90 -144t-61 -46q-23 0 -22 22q0 8 10 19q164 156 164 358q0 31 -2 43q-31 -47 -93 -47q-51 0 -79.5 33t-28.5 76z" />
<glyph unicode="&#x201e;" horiz-adv-x="1071" d="M219 104q0 43 28.5 76t80.5 33q68 0 103.5 -62.5t35.5 -152.5q0 -109 -46 -207t-90 -144t-61 -46q-23 0 -22 22q0 8 10 19q164 156 164 358q0 31 -2 43q-31 -47 -92 -47q-51 0 -80 32.5t-29 75.5zM637 104q0 43 28.5 76t79.5 33q68 0 104 -62.5t36 -152.5 q0 -109 -46 -207t-90 -144t-61 -46q-23 0 -22 22q0 8 10 19q164 156 164 358q0 31 -2 43q-31 -47 -93 -47q-51 0 -79.5 32.5t-28.5 75.5z" />
<glyph unicode="&#x2022;" horiz-adv-x="1728" d="M496 565.5q0 151.5 108.5 260t260 108.5t260 -108.5t108.5 -260t-108.5 -260t-260 -108.5t-260 108.5t-108.5 260z" />
<glyph unicode="&#x2026;" horiz-adv-x="1474" d="M219 108.5q0 45.5 32 77t77 31.5t76.5 -31.5t31.5 -77t-31.5 -77t-76.5 -31.5t-77 31.5t-32 77zM629 108.5q0 45.5 31.5 77t76.5 31.5t77 -31.5t32 -77t-32 -77t-77 -31.5t-76.5 31.5t-31.5 77zM1038 108.5q0 45.5 32 77t77 31.5t76.5 -31.5t31.5 -77t-31.5 -77 t-76.5 -31.5t-77 31.5t-32 77z" />
<glyph unicode="&#x2039;" horiz-adv-x="835" d="M240 496q0 8 6 14q211 199 309 467q2 12 18 12h5q21 0 21 -18q0 -161 -212 -475q212 -316 212 -478q0 -18 -21 -18h-5q-14 0 -18 14q-100 268 -309 465q-6 7 -6 17z" />
<glyph unicode="&#x203a;" horiz-adv-x="835" d="M449 496q-147 221 -209 469q-1 2 -1 4q0 6 4 12q5 8 15 8h4q14 0 21 -12q96 -268 307 -467q6 -6 6 -14q0 -10 -6 -17q-211 -199 -307 -465q-8 -14 -21 -14h-4q-10 0 -15 8q-4 6 -4 12q1 165 210 476z" />
<glyph unicode="&#x20ac;" horiz-adv-x="1345" d="M117 811l6 20q4 14 20 15h107q37 219 168 379q84 102 197.5 160.5t240.5 58.5q143 0 248 -94l82 88q2 6 14 6h6q20 0 21 -21v-317q0 -20 -21 -21h-20q-16 0 -21 19q-12 117 -93 197.5t-193 80.5q-98 0 -183.5 -53t-140.5 -141q-88 -139 -102 -342h637q10 0 17 -8.5 t3 -18.5l-6 -20q-4 -14 -21 -15h-634l-3 -84l3 -84h571q10 0 17 -8t3 -18l-6 -21q-4 -14 -20 -14h-561q14 -205 102 -344q55 -88 140 -141.5t184 -53.5q113 0 193.5 81t92.5 198q4 18 21 18h20q20 0 21 -20v-318q0 -20 -21 -20h-6q-12 0 -14 6l-82 90q-106 -96 -248 -96 q-127 0 -240.5 58.5t-197.5 160.5q-133 162 -168 381h-115q-10 0 -15 8t-3 19l6 20q4 14 20 14h99q-4 53 -4 84q0 27 4 84h-107q-10 0 -15 8.5t-3 18.5z" />
<glyph unicode="&#x2122;" horiz-adv-x="2181" d="M63 1122l25 277h789l24 -277h-31q-14 158 -53 199t-182 41q-59 0 -72 -2q-18 -2 -22 -12.5t-4 -34.5v-647q0 -27 5 -36t32.5 -16.5t91.5 -7.5h49v-39q-49 4 -234 4q-182 0 -231 -4v39h49q63 0 91 7.5t33 16.5t5 36v647v19q0 5 -3 12.5t-8 10.5t-16 5q-12 2 -71 2 q-143 0 -182 -41t-54 -199h-31zM973 567v39q45 0 72.5 8.5t39 25.5t13.5 27.5t2 28.5v615q0 37 -14.5 47t-81.5 10h-31v39h209q33 0 41 -23l284 -700l285 700q8 16 14 19.5t29 3.5h207v-39h-29q-68 0 -83 -10t-15 -47v-647q0 -37 15.5 -47.5t82.5 -10.5h29v-39q-45 4 -176 4 t-176 -4v39h28q68 0 83.5 10.5t15.5 47.5v706l-2 2l-318 -782q-14 -23 -24 -23q-14 0 -23 23l-315 772v-666q0 -18 2 -28.5t13 -27.5t39 -25.5t73 -8.5v-39l-146 4z" />
<glyph unicode="&#xe000;" horiz-adv-x="1055" d="M0 1055h1055v-1055h-1055v1055z" />
<glyph unicode="&#xfb01;" horiz-adv-x="1716" d="M88 0v51q100 0 124 16.5t24 79.5v752q0 63 -24 79.5t-124 16.5v52h889l39 -347h-51q-16 174 -77 234.5t-229 60.5h-194q-55 0 -68.5 -14t-13.5 -74v-358h137q111 0 142.5 36t31.5 142h51v-408h-51q0 106 -31.5 142.5t-142.5 36.5h-137v-344q0 -74 30.5 -88.5t153.5 -14.5 v-51l-252 6zM1178 0v51q109 0 132 15.5t23 83.5v753q0 68 -23.5 83t-131.5 15v52l229 -6l229 6v-52q-109 0 -132 -15t-23 -83v-753q0 -68 23.5 -83.5t131.5 -15.5v-51l-229 6z" />
<glyph unicode="&#xfb02;" horiz-adv-x="2148" d="M88 0v51q100 0 124 16.5t24 79.5v752q0 63 -24 79.5t-124 16.5v52h889l39 -347h-51q-16 174 -77 234.5t-229 60.5h-194q-55 0 -68.5 -14t-13.5 -74v-358h137q111 0 142.5 36t31.5 142h51v-408h-51q0 106 -31.5 142.5t-142.5 36.5h-137v-344q0 -74 30.5 -88.5t153.5 -14.5 v-51l-252 6zM1186 0v51q100 0 123.5 16.5t23.5 79.5v758q0 63 -23.5 79.5t-123.5 16.5v52l227 -6l252 6v-52q-123 0 -153.5 -14t-30.5 -88v-760q0 -59 13 -73.5t69 -14.5h129q82 0 141 22.5t91 50.5t52.5 82t26.5 90t12 101h51l-38 -397h-842z" />
<glyph unicode="&#xfb03;" horiz-adv-x="2813" d="M88 0v51q100 0 124 16.5t24 79.5v752q0 63 -24 79.5t-124 16.5v52h889l39 -347h-51q-16 174 -77 234.5t-229 60.5h-194q-55 0 -68.5 -14t-13.5 -74v-358h137q111 0 142.5 36t31.5 142h51v-408h-51q0 106 -31.5 142.5t-142.5 36.5h-137v-344q0 -74 30.5 -88.5t153.5 -14.5 v-51l-252 6zM1186 0v51q100 0 123.5 16.5t23.5 79.5v752q0 63 -23.5 79.5t-123.5 16.5v52h889l39 -347h-52q-16 174 -76.5 234.5t-228.5 60.5h-194q-55 0 -68.5 -14t-13.5 -74v-358h137q111 0 142.5 36t31.5 142h51v-408h-51q0 106 -31.5 142.5t-142.5 36.5h-137v-344 q0 -74 30.5 -88.5t153.5 -14.5v-51l-252 6zM2275 0v51q109 0 132.5 15.5t23.5 83.5v753q0 68 -23.5 83t-132.5 15v52l230 -6l229 6v-52q-109 0 -132.5 -15t-23.5 -83v-753q0 -68 24 -83.5t132 -15.5v-51l-229 6z" />
<glyph unicode="&#xfb04;" horiz-adv-x="3246" d="M88 0v51q100 0 124 16.5t24 79.5v752q0 63 -24 79.5t-124 16.5v52h889l39 -347h-51q-16 174 -77 234.5t-229 60.5h-194q-55 0 -68.5 -14t-13.5 -74v-358h137q111 0 142.5 36t31.5 142h51v-408h-51q0 106 -31.5 142.5t-142.5 36.5h-137v-344q0 -74 30.5 -88.5t153.5 -14.5 v-51l-252 6zM1186 0v51q100 0 123.5 16.5t23.5 79.5v752q0 63 -23.5 79.5t-123.5 16.5v52h889l39 -347h-52q-16 174 -76.5 234.5t-228.5 60.5h-194q-55 0 -68.5 -14t-13.5 -74v-358h137q111 0 142.5 36t31.5 142h51v-408h-51q0 106 -31.5 142.5t-142.5 36.5h-137v-344 q0 -74 30.5 -88.5t153.5 -14.5v-51l-252 6zM2284 0v51q100 0 123.5 16.5t23.5 79.5v758q0 63 -23.5 79.5t-123.5 16.5v52l227 -6l252 6v-52q-123 0 -154 -14t-31 -88v-760q0 -59 13.5 -73.5t68.5 -14.5h129q82 0 141.5 22.5t91.5 50.5t52.5 82t26.5 90t12 101h51l-39 -397 h-841z" />
</font>
</defs>
</svg>
